<svg xmlns="http://www.w3.org/2000/svg" xmlns:xlink="http://www.w3.org/1999/xlink" width="1024" zoomAndPan="magnify" viewBox="0 0 768 767.999994" height="1024" preserveAspectRatio="xMidYMid meet" version="1.0"><defs><clipPath id="02411c1cbb"><path d="M 305 89 L 398.855469 89 L 398.855469 661.539062 L 305 661.539062 Z M 305 89 " clip-rule="nonzero"/></clipPath><clipPath id="5e33f4aca7"><path d="M 395.925781 108.074219 C 398.625 133.273438 399.074219 142.800781 398.175781 155.851562 C 396.601562 178.050781 389.023438 216.226562 385.273438 245.25 C 381.824219 272.625 379.125 295.726562 376.351562 325.199219 C 372.976562 361.574219 368.550781 409.800781 366.976562 447.375 C 365.699219 479.398438 367.726562 510.148438 366.601562 536.550781 C 365.699219 557.773438 364.351562 578.023438 362.175781 593.699219 C 360.523438 604.800781 358.5 612.824219 356.25 622.050781 C 354 630.976562 351.375 642.601562 348.75 648.148438 C 347.324219 651 346.199219 652.5 344.476562 654.226562 C 342.75 655.949219 340.648438 657.523438 338.476562 658.648438 C 336.300781 659.773438 333.824219 660.523438 331.425781 660.898438 C 329.023438 661.273438 326.398438 661.199219 324 660.824219 C 321.601562 660.375 319.125 659.476562 317.023438 658.351562 C 314.851562 657.148438 312.824219 655.574219 311.175781 653.773438 C 309.523438 651.976562 308.101562 649.800781 307.050781 647.550781 C 306.074219 645.300781 305.398438 642.824219 305.175781 640.351562 C 304.949219 637.949219 305.175781 635.324219 305.699219 632.925781 C 306.300781 630.601562 307.273438 628.199219 308.550781 626.101562 C 309.824219 624 311.550781 622.050781 313.425781 620.550781 C 315.300781 618.976562 317.550781 617.625 319.875 616.800781 C 322.125 615.898438 324.675781 615.375 327.148438 615.300781 C 329.550781 615.226562 332.175781 615.523438 334.5 616.199219 C 336.824219 616.875 339.148438 618 341.175781 619.425781 C 343.199219 620.851562 345.074219 622.648438 346.5 624.601562 C 347.925781 626.550781 349.125 628.875 349.875 631.199219 C 350.625 633.523438 351 636.074219 351 638.550781 C 350.925781 640.949219 350.476562 643.574219 349.648438 645.824219 C 348.824219 648.148438 347.625 650.398438 346.125 652.351562 C 344.625 654.300781 342.675781 656.023438 340.648438 657.375 C 338.625 658.726562 336.226562 659.773438 333.824219 660.375 C 331.5 661.050781 328.875 661.273438 326.476562 661.125 C 324 660.898438 321.523438 660.300781 319.273438 659.398438 C 316.949219 658.425781 314.773438 657.074219 312.898438 655.5 C 311.101562 653.851562 309.449219 651.898438 308.25 649.726562 C 306.976562 647.625 306.074219 645.226562 305.550781 642.824219 C 305.101562 640.425781 304.875 638.324219 305.25 635.398438 C 305.851562 631.050781 308.851562 625.425781 310.5 619.425781 C 312.601562 611.925781 314.773438 602.398438 316.5 593.851562 C 318.074219 585.449219 319.425781 577.574219 320.398438 568.648438 C 321.601562 558.601562 322.199219 550.050781 322.800781 536.550781 C 323.851562 513.75 322.949219 477.226562 324.375 444.300781 C 326.023438 406.273438 330 358.050781 333.074219 321.300781 C 335.550781 291.300781 337.949219 264.523438 340.875 239.625 C 343.351562 218.550781 346.5 197.25 349.050781 181.199219 C 350.851562 169.949219 353.175781 161.625 354.148438 152.625 C 354.976562 144.601562 355.199219 137.324219 354.976562 129.824219 C 354.824219 122.550781 352.648438 112.875 352.949219 108.226562 C 353.101562 105.898438 353.625 104.773438 354.226562 103.125 C 354.824219 101.476562 355.648438 99.898438 356.625 98.476562 C 357.601562 97.050781 358.800781 95.699219 360.074219 94.574219 C 361.351562 93.449219 362.851562 92.398438 364.351562 91.574219 C 365.851562 90.824219 367.574219 90.148438 369.226562 89.699219 C 370.875 89.324219 372.675781 89.101562 374.398438 89.101562 C 376.125 89.101562 377.925781 89.25 379.574219 89.699219 C 381.300781 90.074219 382.949219 90.75 384.449219 91.5 C 386.023438 92.324219 387.449219 93.300781 388.800781 94.5 C 390.074219 95.625 391.273438 96.976562 392.25 98.398438 C 393.226562 99.824219 394.050781 101.398438 394.726562 102.976562 C 395.324219 104.625 395.925781 108.074219 395.925781 108.074219 " clip-rule="nonzero"/></clipPath><clipPath id="220d9d63f2"><path d="M 0 0.0390625 L 93.855469 0.0390625 L 93.855469 572.441406 L 0 572.441406 Z M 0 0.0390625 " clip-rule="nonzero"/></clipPath><clipPath id="d6d6120979"><path d="M 90.925781 19.074219 C 93.625 44.273438 94.074219 53.800781 93.175781 66.851562 C 91.601562 89.050781 84.023438 127.226562 80.273438 156.25 C 76.824219 183.625 74.125 206.726562 71.351562 236.199219 C 67.976562 272.574219 63.550781 320.800781 61.976562 358.375 C 60.699219 390.398438 62.726562 421.148438 61.601562 447.550781 C 60.699219 468.773438 59.351562 489.023438 57.175781 504.699219 C 55.523438 515.800781 53.5 523.824219 51.25 533.050781 C 49 541.976562 46.375 553.601562 43.75 559.148438 C 42.324219 562 41.199219 563.5 39.476562 565.226562 C 37.75 566.949219 35.648438 568.523438 33.476562 569.648438 C 31.300781 570.773438 28.824219 571.523438 26.425781 571.898438 C 24.023438 572.273438 21.398438 572.199219 19 571.824219 C 16.601562 571.375 14.125 570.476562 12.023438 569.351562 C 9.851562 568.148438 7.824219 566.574219 6.175781 564.773438 C 4.523438 562.976562 3.101562 560.800781 2.050781 558.550781 C 1.074219 556.300781 0.398438 553.824219 0.175781 551.351562 C -0.0507812 548.949219 0.175781 546.324219 0.699219 543.925781 C 1.300781 541.601562 2.273438 539.199219 3.550781 537.101562 C 4.824219 535 6.550781 533.050781 8.425781 531.550781 C 10.300781 529.976562 12.550781 528.625 14.875 527.800781 C 17.125 526.898438 19.675781 526.375 22.148438 526.300781 C 24.550781 526.226562 27.175781 526.523438 29.5 527.199219 C 31.824219 527.875 34.148438 529 36.175781 530.425781 C 38.199219 531.851562 40.074219 533.648438 41.5 535.601562 C 42.925781 537.550781 44.125 539.875 44.875 542.199219 C 45.625 544.523438 46 547.074219 46 549.550781 C 45.925781 551.949219 45.476562 554.574219 44.648438 556.824219 C 43.824219 559.148438 42.625 561.398438 41.125 563.351562 C 39.625 565.300781 37.675781 567.023438 35.648438 568.375 C 33.625 569.726562 31.226562 570.773438 28.824219 571.375 C 26.5 572.050781 23.875 572.273438 21.476562 572.125 C 19 571.898438 16.523438 571.300781 14.273438 570.398438 C 11.949219 569.425781 9.773438 568.074219 7.898438 566.5 C 6.101562 564.851562 4.449219 562.898438 3.25 560.726562 C 1.976562 558.625 1.074219 556.226562 0.550781 553.824219 C 0.101562 551.425781 -0.125 549.324219 0.25 546.398438 C 0.851562 542.050781 3.851562 536.425781 5.5 530.425781 C 7.601562 522.925781 9.773438 513.398438 11.5 504.851562 C 13.074219 496.449219 14.425781 488.574219 15.398438 479.648438 C 16.601562 469.601562 17.199219 461.050781 17.800781 447.550781 C 18.851562 424.75 17.949219 388.226562 19.375 355.300781 C 21.023438 317.273438 25 269.050781 28.074219 232.300781 C 30.550781 202.300781 32.949219 175.523438 35.875 150.625 C 38.351562 129.550781 41.5 108.25 44.050781 92.199219 C 45.851562 80.949219 48.175781 72.625 49.148438 63.625 C 49.976562 55.601562 50.199219 48.324219 49.976562 40.824219 C 49.824219 33.550781 47.648438 23.875 47.949219 19.226562 C 48.101562 16.898438 48.625 15.773438 49.226562 14.125 C 49.824219 12.476562 50.648438 10.898438 51.625 9.476562 C 52.601562 8.050781 53.800781 6.699219 55.074219 5.574219 C 56.351562 4.449219 57.851562 3.398438 59.351562 2.574219 C 60.851562 1.824219 62.574219 1.148438 64.226562 0.699219 C 65.875 0.324219 67.675781 0.101562 69.398438 0.101562 C 71.125 0.101562 72.925781 0.25 74.574219 0.699219 C 76.300781 1.074219 77.949219 1.75 79.449219 2.5 C 81.023438 3.324219 82.449219 4.300781 83.800781 5.5 C 85.074219 6.625 86.273438 7.976562 87.25 9.398438 C 88.226562 10.824219 89.050781 12.398438 89.726562 13.976562 C 90.324219 15.625 90.925781 19.074219 90.925781 19.074219 " clip-rule="nonzero"/></clipPath><clipPath id="3aa25c15b6"><rect x="0" width="94" y="0" height="573"/></clipPath><clipPath id="c38a688adc"><path d="M 236.042969 90 L 390.730469 90 L 390.730469 264.589844 L 236.042969 264.589844 Z M 236.042969 90 " clip-rule="nonzero"/></clipPath><clipPath id="c74ee30709"><path d="M 384.675781 126.375 C 364.949219 147.75 349.273438 161.476562 340.199219 170.851562 C 333.300781 177.898438 329.476562 181.726562 322.726562 190.050781 C 311.851562 203.550781 288.226562 235.574219 282.898438 245.699219 C 281.101562 249.148438 281.476562 250.949219 280.199219 253.125 C 278.851562 255.300781 277.050781 257.324219 275.101562 258.898438 C 273.148438 260.476562 270.824219 261.824219 268.425781 262.648438 C 266.101562 263.550781 263.476562 264.074219 260.925781 264.148438 C 258.449219 264.226562 255.75 263.925781 253.351562 263.175781 C 250.949219 262.425781 248.550781 261.300781 246.449219 259.800781 C 244.425781 258.375 242.476562 256.5 241.050781 254.398438 C 239.550781 252.375 238.351562 249.976562 237.601562 247.574219 C 236.851562 245.175781 236.476562 242.550781 236.550781 240 C 236.550781 237.523438 237.074219 234.824219 237.898438 232.5 C 238.800781 230.101562 240.074219 227.773438 241.648438 225.824219 C 243.226562 223.800781 245.175781 222 247.351562 220.648438 C 249.449219 219.300781 251.925781 218.25 254.324219 217.574219 C 256.800781 216.976562 259.425781 216.75 261.976562 216.898438 C 264.449219 217.125 267.074219 217.726562 269.398438 218.699219 C 271.726562 219.75 273.976562 221.175781 275.851562 222.824219 C 277.726562 224.476562 279.449219 226.574219 280.726562 228.75 C 281.925781 230.925781 282.898438 233.476562 283.351562 235.949219 C 283.875 238.425781 283.949219 241.125 283.648438 243.601562 C 283.273438 246.074219 282.523438 248.625 281.398438 250.949219 C 280.351562 253.199219 278.773438 255.375 276.976562 257.175781 C 275.25 258.976562 273.074219 260.550781 270.824219 261.675781 C 268.574219 262.800781 265.949219 263.625 263.476562 263.925781 C 261 264.300781 258.300781 264.226562 255.824219 263.773438 C 253.351562 263.324219 250.800781 262.425781 248.625 261.148438 C 246.449219 259.949219 244.351562 258.300781 242.625 256.425781 C 240.976562 254.550781 239.476562 252.300781 238.5 249.976562 C 237.449219 247.648438 236.851562 245.101562 236.625 242.550781 C 236.398438 240.074219 236.324219 238.050781 237.148438 234.976562 C 238.648438 229.5 243.300781 220.273438 247.574219 213.675781 C 251.773438 207.074219 257.101562 202.648438 262.726562 195.523438 C 270.148438 185.925781 280.199219 170.550781 287.925781 161.101562 C 293.773438 154.050781 297.601562 150.074219 304.351562 143.398438 C 313.949219 133.949219 332.101562 119.101562 340.726562 110.476562 C 345.898438 105.300781 349.5 100.351562 352.425781 97.5 C 354 95.925781 354.898438 95.023438 356.324219 94.050781 C 357.75 93.074219 359.324219 92.25 360.976562 91.648438 C 362.550781 91.050781 364.273438 90.601562 366 90.449219 C 367.726562 90.226562 369.523438 90.226562 371.25 90.449219 C 372.976562 90.675781 374.699219 91.125 376.273438 91.726562 C 377.925781 92.324219 379.5 93.148438 380.925781 94.199219 C 382.351562 95.175781 383.625 96.375 384.824219 97.648438 C 385.949219 98.925781 386.925781 100.425781 387.75 102 C 388.5 103.5 389.175781 105.148438 389.550781 106.875 C 390 108.523438 390.148438 110.324219 390.148438 112.050781 C 390.148438 113.773438 389.925781 115.5 389.476562 117.226562 C 389.101562 118.875 388.425781 120.523438 387.601562 122.101562 C 386.851562 123.601562 384.675781 126.375 384.675781 126.375 " clip-rule="nonzero"/></clipPath><clipPath id="955a50d592"><path d="M 0.160156 0 L 154.238281 0 L 154.238281 174.480469 L 0.160156 174.480469 Z M 0.160156 0 " clip-rule="nonzero"/></clipPath><clipPath id="912e4330e5"><path d="M 148.675781 36.375 C 128.949219 57.75 113.273438 71.476562 104.199219 80.851562 C 97.300781 87.898438 93.476562 91.726562 86.726562 100.050781 C 75.851562 113.550781 52.226562 145.574219 46.898438 155.699219 C 45.101562 159.148438 45.476562 160.949219 44.199219 163.125 C 42.851562 165.300781 41.050781 167.324219 39.101562 168.898438 C 37.148438 170.476562 34.824219 171.824219 32.425781 172.648438 C 30.101562 173.550781 27.476562 174.074219 24.925781 174.148438 C 22.449219 174.226562 19.75 173.925781 17.351562 173.175781 C 14.949219 172.425781 12.550781 171.300781 10.449219 169.800781 C 8.425781 168.375 6.476562 166.5 5.050781 164.398438 C 3.550781 162.375 2.351562 159.976562 1.601562 157.574219 C 0.851562 155.175781 0.476562 152.550781 0.550781 150 C 0.550781 147.523438 1.074219 144.824219 1.898438 142.5 C 2.800781 140.101562 4.074219 137.773438 5.648438 135.824219 C 7.226562 133.800781 9.175781 132 11.351562 130.648438 C 13.449219 129.300781 15.925781 128.25 18.324219 127.574219 C 20.800781 126.976562 23.425781 126.75 25.976562 126.898438 C 28.449219 127.125 31.074219 127.726562 33.398438 128.699219 C 35.726562 129.75 37.976562 131.175781 39.851562 132.824219 C 41.726562 134.476562 43.449219 136.574219 44.726562 138.75 C 45.925781 140.925781 46.898438 143.476562 47.351562 145.949219 C 47.875 148.425781 47.949219 151.125 47.648438 153.601562 C 47.273438 156.074219 46.523438 158.625 45.398438 160.949219 C 44.351562 163.199219 42.773438 165.375 40.976562 167.175781 C 39.25 168.976562 37.074219 170.550781 34.824219 171.675781 C 32.574219 172.800781 29.949219 173.625 27.476562 173.925781 C 25 174.300781 22.300781 174.226562 19.824219 173.773438 C 17.351562 173.324219 14.800781 172.425781 12.625 171.148438 C 10.449219 169.949219 8.351562 168.300781 6.625 166.425781 C 4.976562 164.550781 3.476562 162.300781 2.5 159.976562 C 1.449219 157.648438 0.851562 155.101562 0.625 152.550781 C 0.398438 150.074219 0.324219 148.050781 1.148438 144.976562 C 2.648438 139.5 7.300781 130.273438 11.574219 123.675781 C 15.773438 117.074219 21.101562 112.648438 26.726562 105.523438 C 34.148438 95.925781 44.199219 80.550781 51.925781 71.101562 C 57.773438 64.050781 61.601562 60.074219 68.351562 53.398438 C 77.949219 43.949219 96.101562 29.101562 104.726562 20.476562 C 109.898438 15.300781 113.5 10.351562 116.425781 7.5 C 118 5.925781 118.898438 5.023438 120.324219 4.050781 C 121.75 3.074219 123.324219 2.25 124.976562 1.648438 C 126.550781 1.050781 128.273438 0.601562 130 0.449219 C 131.726562 0.226562 133.523438 0.226562 135.25 0.449219 C 136.976562 0.675781 138.699219 1.125 140.273438 1.726562 C 141.925781 2.324219 143.5 3.148438 144.925781 4.199219 C 146.351562 5.175781 147.625 6.375 148.824219 7.648438 C 149.949219 8.925781 150.925781 10.425781 151.75 12 C 152.5 13.5 153.175781 15.148438 153.550781 16.875 C 154 18.523438 154.148438 20.324219 154.148438 22.050781 C 154.148438 23.773438 153.925781 25.5 153.476562 27.226562 C 153.101562 28.875 152.425781 30.523438 151.601562 32.101562 C 150.851562 33.601562 148.675781 36.375 148.675781 36.375 " clip-rule="nonzero"/></clipPath><clipPath id="20c9f841f9"><rect x="0" width="155" y="0" height="175"/></clipPath><clipPath id="ad60a6ea1a"><path d="M 358.117188 87.863281 L 537.863281 87.863281 L 537.863281 315.976562 L 358.117188 315.976562 Z M 358.117188 87.863281 " clip-rule="nonzero"/></clipPath><clipPath id="b8e7923ce2"><path d="M 400.425781 101.550781 C 408.824219 121.050781 412.800781 127.726562 416.550781 133.949219 C 420.375 140.324219 424.273438 146.476562 428.699219 153.074219 C 433.648438 160.5 438.226562 167.101562 444.898438 176.175781 C 454.800781 189.601562 468.976562 208.875 483 225.523438 C 498.601562 243.898438 528.375 271.425781 534.675781 281.398438 C 536.550781 284.550781 536.773438 285.976562 537.300781 288.300781 C 537.75 290.699219 537.898438 293.25 537.601562 295.648438 C 537.300781 298.050781 536.550781 300.601562 535.5 302.773438 C 534.449219 304.949219 532.949219 307.050781 531.300781 308.773438 C 529.574219 310.5 527.550781 312.074219 525.375 313.199219 C 523.199219 314.25 520.726562 315.074219 518.324219 315.449219 C 515.925781 315.824219 513.375 315.75 510.976562 315.300781 C 508.574219 314.925781 506.175781 314.023438 504.074219 312.898438 C 501.898438 311.699219 499.875 310.125 498.226562 308.324219 C 496.574219 306.523438 495.148438 304.425781 494.175781 302.175781 C 493.199219 300 492.523438 297.449219 492.300781 295.050781 C 492.074219 292.648438 492.226562 290.101562 492.824219 287.699219 C 493.351562 285.375 494.324219 282.976562 495.601562 280.875 C 496.875 278.851562 498.601562 276.898438 500.476562 275.324219 C 502.351562 273.824219 504.601562 272.550781 506.851562 271.648438 C 509.101562 270.75 511.648438 270.226562 514.050781 270.148438 C 516.449219 270.074219 519.074219 270.375 521.398438 271.050781 C 523.726562 271.726562 526.050781 272.851562 528 274.273438 C 530.023438 275.625 531.824219 277.425781 533.324219 279.375 C 534.75 281.324219 535.875 283.648438 536.625 285.976562 C 537.375 288.226562 537.75 290.773438 537.75 293.25 C 537.675781 295.648438 537.226562 298.199219 536.476562 300.449219 C 535.648438 302.773438 534.375 305.023438 532.875 306.976562 C 531.449219 308.851562 529.5 310.574219 527.476562 311.925781 C 525.449219 313.273438 523.125 314.324219 520.800781 314.925781 C 518.398438 315.523438 515.851562 315.824219 513.449219 315.601562 C 511.050781 315.449219 508.5 314.851562 506.25 313.949219 C 504 313.050781 502.875 312.449219 500.023438 310.050781 C 490.800781 302.398438 464.175781 272.175781 448.425781 253.351562 C 433.875 236.023438 418.875 215.773438 408.449219 201.523438 C 401.476562 191.925781 396.601562 184.875 391.425781 176.925781 C 386.699219 169.648438 382.648438 163.050781 378.523438 155.699219 C 374.101562 147.898438 369.148438 138.976562 365.773438 131.324219 C 362.925781 124.726562 359.851562 116.925781 359.023438 112.5 C 358.648438 110.324219 358.800781 109.050781 358.949219 107.324219 C 359.175781 105.601562 359.550781 103.875 360.148438 102.226562 C 360.675781 100.648438 361.5 99.074219 362.476562 97.574219 C 363.375 96.148438 364.574219 94.800781 365.851562 93.675781 C 367.125 92.476562 368.550781 91.425781 370.050781 90.601562 C 371.550781 89.773438 373.199219 89.101562 374.925781 88.726562 C 376.574219 88.273438 378.300781 87.976562 380.023438 87.976562 C 381.75 87.976562 383.550781 88.125 385.199219 88.5 C 386.925781 88.875 388.574219 89.476562 390.074219 90.226562 C 391.648438 91.050781 393.148438 92.023438 394.425781 93.148438 C 395.773438 94.273438 396.976562 95.550781 397.949219 96.976562 C 399 98.398438 400.5 101.550781 400.5 101.550781 " clip-rule="nonzero"/></clipPath><clipPath id="4e6fa69fc0"><path d="M 0.558594 0.863281 L 179.863281 0.863281 L 179.863281 228.839844 L 0.558594 228.839844 Z M 0.558594 0.863281 " clip-rule="nonzero"/></clipPath><clipPath id="468195af9d"><path d="M 42.425781 14.550781 C 50.824219 34.050781 54.800781 40.726562 58.550781 46.949219 C 62.375 53.324219 66.273438 59.476562 70.699219 66.074219 C 75.648438 73.5 80.226562 80.101562 86.898438 89.175781 C 96.800781 102.601562 110.976562 121.875 125 138.523438 C 140.601562 156.898438 170.375 184.425781 176.675781 194.398438 C 178.550781 197.550781 178.773438 198.976562 179.300781 201.300781 C 179.75 203.699219 179.898438 206.25 179.601562 208.648438 C 179.300781 211.050781 178.550781 213.601562 177.5 215.773438 C 176.449219 217.949219 174.949219 220.050781 173.300781 221.773438 C 171.574219 223.5 169.550781 225.074219 167.375 226.199219 C 165.199219 227.25 162.726562 228.074219 160.324219 228.449219 C 157.925781 228.824219 155.375 228.75 152.976562 228.300781 C 150.574219 227.925781 148.175781 227.023438 146.074219 225.898438 C 143.898438 224.699219 141.875 223.125 140.226562 221.324219 C 138.574219 219.523438 137.148438 217.425781 136.175781 215.175781 C 135.199219 213 134.523438 210.449219 134.300781 208.050781 C 134.074219 205.648438 134.226562 203.101562 134.824219 200.699219 C 135.351562 198.375 136.324219 195.976562 137.601562 193.875 C 138.875 191.851562 140.601562 189.898438 142.476562 188.324219 C 144.351562 186.824219 146.601562 185.550781 148.851562 184.648438 C 151.101562 183.75 153.648438 183.226562 156.050781 183.148438 C 158.449219 183.074219 161.074219 183.375 163.398438 184.050781 C 165.726562 184.726562 168.050781 185.851562 170 187.273438 C 172.023438 188.625 173.824219 190.425781 175.324219 192.375 C 176.75 194.324219 177.875 196.648438 178.625 198.976562 C 179.375 201.226562 179.75 203.773438 179.75 206.25 C 179.675781 208.648438 179.226562 211.199219 178.476562 213.449219 C 177.648438 215.773438 176.375 218.023438 174.875 219.976562 C 173.449219 221.851562 171.5 223.574219 169.476562 224.925781 C 167.449219 226.273438 165.125 227.324219 162.800781 227.925781 C 160.398438 228.523438 157.851562 228.824219 155.449219 228.601562 C 153.050781 228.449219 150.5 227.851562 148.25 226.949219 C 146 226.050781 144.875 225.449219 142.023438 223.050781 C 132.800781 215.398438 106.175781 185.175781 90.425781 166.351562 C 75.875 149.023438 60.875 128.773438 50.449219 114.523438 C 43.476562 104.925781 38.601562 97.875 33.425781 89.925781 C 28.699219 82.648438 24.648438 76.050781 20.523438 68.699219 C 16.101562 60.898438 11.148438 51.976562 7.773438 44.324219 C 4.925781 37.726562 1.851562 29.925781 1.023438 25.5 C 0.648438 23.324219 0.800781 22.050781 0.949219 20.324219 C 1.175781 18.601562 1.550781 16.875 2.148438 15.226562 C 2.675781 13.648438 3.5 12.074219 4.476562 10.574219 C 5.375 9.148438 6.574219 7.800781 7.851562 6.675781 C 9.125 5.476562 10.550781 4.425781 12.050781 3.601562 C 13.550781 2.773438 15.199219 2.101562 16.925781 1.726562 C 18.574219 1.273438 20.300781 0.976562 22.023438 0.976562 C 23.75 0.976562 25.550781 1.125 27.199219 1.5 C 28.925781 1.875 30.574219 2.476562 32.074219 3.226562 C 33.648438 4.050781 35.148438 5.023438 36.425781 6.148438 C 37.773438 7.273438 38.976562 8.550781 39.949219 9.976562 C 41 11.398438 42.5 14.550781 42.5 14.550781 " clip-rule="nonzero"/></clipPath><clipPath id="4c00a77766"><rect x="0" width="180" y="0" height="229"/></clipPath></defs><rect x="-76.8" width="921.6" fill="#ffffff" y="-76.799999" height="921.599993" fill-opacity="1"/><rect x="-76.8" width="921.6" fill="#545454" y="-76.799999" height="921.599993" fill-opacity="1"/><g clip-path="url(#02411c1cbb)"><g clip-path="url(#5e33f4aca7)"><g transform="matrix(1, 0, 0, 1, 305, 89)"><g clip-path="url(#3aa25c15b6)"><g clip-path="url(#220d9d63f2)"><g clip-path="url(#d6d6120979)"><rect x="-473.96" width="1105.92" fill="#0581d3" height="1105.919991" y="-257.959999" fill-opacity="1"/></g></g></g></g></g></g><g clip-path="url(#c38a688adc)"><g clip-path="url(#c74ee30709)"><g transform="matrix(1, 0, 0, 1, 236, 90)"><g clip-path="url(#20c9f841f9)"><g clip-path="url(#955a50d592)"><g clip-path="url(#912e4330e5)"><rect x="-404.96" width="1105.92" fill="#0581d3" height="1105.919991" y="-258.959999" fill-opacity="1"/></g></g></g></g></g></g><g clip-path="url(#ad60a6ea1a)"><g clip-path="url(#b8e7923ce2)"><g transform="matrix(1, 0, 0, 1, 358, 87)"><g clip-path="url(#4c00a77766)"><g clip-path="url(#4e6fa69fc0)"><g clip-path="url(#468195af9d)"><rect x="-526.96" width="1105.92" fill="#0581d3" height="1105.919991" y="-255.959999" fill-opacity="1"/></g></g></g></g></g></g></svg>