<svg xmlns="http://www.w3.org/2000/svg" xmlns:xlink="http://www.w3.org/1999/xlink" width="1024" zoomAndPan="magnify" viewBox="0 0 768 767.999994" height="1024" preserveAspectRatio="xMidYMid meet" version="1.0"><defs><clipPath id="bc83c4a11c"><path d="M 270.597656 208 L 644 208 L 644 674.816406 L 270.597656 674.816406 Z M 270.597656 208 " clip-rule="nonzero"/></clipPath><clipPath id="cde5634569"><path d="M 604.5 665.101562 C 589.648438 644.773438 583.949219 637.574219 578.773438 631.648438 C 573.824219 626.023438 570 622.050781 563.851562 615.898438 C 554.550781 606.523438 538.125 591.824219 527.925781 581.476562 C 519.898438 573.375 515.476562 568.726562 507.226562 559.199219 C 493.574219 543.675781 467.175781 509.773438 455.023438 495.824219 C 448.875 488.699219 446.851562 486.375 440.699219 480 C 430.273438 469.425781 409.351562 450.449219 397.726562 438.898438 C 389.550781 430.800781 384.824219 426 377.324219 417.824219 C 367.425781 407.023438 352.5 389.851562 344.175781 379.5 C 338.773438 372.75 335.625 368.773438 331.351562 362.398438 C 326.398438 354.976562 321 345.300781 316.726562 337.351562 C 312.898438 330.375 310.425781 325.5 306.675781 317.398438 C 300.976562 305.023438 293.101562 283.726562 286.726562 269.773438 C 281.625 258.601562 274.050781 246.675781 271.875 239.851562 C 270.824219 236.550781 270.601562 234.75 270.601562 232.199219 C 270.601562 229.648438 271.050781 226.949219 271.875 224.476562 C 272.699219 222.074219 273.976562 219.675781 275.550781 217.574219 C 277.050781 215.550781 279.074219 213.675781 281.175781 212.25 C 283.273438 210.824219 285.824219 209.699219 288.226562 208.949219 C 290.699219 208.273438 293.476562 207.976562 296.023438 208.125 C 298.574219 208.273438 301.199219 208.875 303.601562 209.851562 C 306 210.75 308.324219 212.175781 310.273438 213.824219 C 312.226562 215.476562 314.023438 217.574219 315.300781 219.75 C 316.648438 222 317.699219 224.476562 318.226562 227.023438 C 318.75 229.5 318.898438 232.273438 318.601562 234.824219 C 318.375 237.375 317.625 240 316.574219 242.324219 C 315.449219 244.648438 313.949219 246.898438 312.148438 248.773438 C 310.425781 250.574219 308.25 252.300781 306 253.425781 C 303.675781 254.625 301.125 255.523438 298.574219 255.976562 C 296.023438 256.351562 293.324219 256.351562 290.773438 255.976562 C 288.300781 255.523438 285.675781 254.625 283.425781 253.425781 C 281.175781 252.226562 279 250.574219 277.199219 248.773438 C 275.476562 246.898438 273.898438 244.648438 272.851562 242.324219 C 271.800781 240 271.050781 237.300781 270.75 234.75 C 270.449219 232.199219 270.601562 229.5 271.199219 227.023438 C 271.726562 224.476562 272.773438 221.925781 274.050781 219.75 C 275.398438 217.574219 277.125 215.476562 279.148438 213.824219 C 281.101562 212.175781 283.425781 210.75 285.824219 209.851562 C 288.148438 208.875 290.851562 208.273438 293.398438 208.125 C 295.949219 207.976562 298.648438 208.273438 301.125 209.023438 C 303.601562 209.699219 306.074219 210.824219 308.25 212.25 C 310.351562 213.675781 312.226562 215.773438 313.875 217.648438 C 315.300781 219.300781 316.050781 220.125 317.625 222.898438 C 321.976562 230.625 332.851562 256.949219 338.175781 269.851562 C 341.925781 278.773438 343.875 285.148438 347.101562 292.800781 C 350.398438 300.523438 354.074219 308.476562 357.824219 315.824219 C 361.5 322.949219 364.875 329.398438 369.300781 336.226562 C 374.101562 343.648438 378.976562 350.25 385.726562 358.425781 C 394.949219 369.675781 407.25 383.25 420.300781 396.824219 C 436.125 413.324219 462.148438 436.800781 474.601562 449.851562 C 481.574219 457.050781 483.601562 459.601562 490.125 467.25 C 502.199219 481.5 527.324219 514.050781 540.300781 528.976562 C 547.949219 537.824219 551.851562 541.875 559.273438 549.601562 C 569.25 559.800781 585.226562 574.425781 594.898438 584.476562 C 601.949219 591.824219 606.300781 596.324219 612.601562 603.976562 C 620.925781 613.949219 635.625 633.523438 639.75 639.898438 C 641.175781 642.074219 641.625 642.898438 642.226562 644.476562 C 642.898438 646.125 643.351562 647.851562 643.574219 649.574219 C 643.800781 651.226562 643.875 653.023438 643.648438 654.75 C 643.5 656.476562 643.050781 658.199219 642.523438 659.851562 C 641.925781 661.5 641.101562 663.074219 640.125 664.5 C 639.148438 665.925781 638.023438 667.273438 636.75 668.476562 C 635.476562 669.601562 634.050781 670.648438 632.476562 671.476562 C 630.976562 672.300781 629.324219 672.976562 627.675781 673.425781 C 625.949219 673.875 624.226562 674.101562 622.5 674.101562 C 620.773438 674.175781 618.976562 673.949219 617.324219 673.574219 C 615.601562 673.199219 613.949219 672.601562 612.375 671.851562 C 610.875 671.023438 609.375 670.050781 608.023438 668.925781 C 606.75 667.800781 604.5 665.101562 604.5 665.101562 " clip-rule="nonzero"/></clipPath><clipPath id="b820c8376b"><path d="M 0.597656 0 L 373.921875 0 L 373.921875 466.398438 L 0.597656 466.398438 Z M 0.597656 0 " clip-rule="nonzero"/></clipPath><clipPath id="3b34c94008"><path d="M 334.5 457.101562 C 319.648438 436.773438 313.949219 429.574219 308.773438 423.648438 C 303.824219 418.023438 300 414.050781 293.851562 407.898438 C 284.550781 398.523438 268.125 383.824219 257.925781 373.476562 C 249.898438 365.375 245.476562 360.726562 237.226562 351.199219 C 223.574219 335.675781 197.175781 301.773438 185.023438 287.824219 C 178.875 280.699219 176.851562 278.375 170.699219 272 C 160.273438 261.425781 139.351562 242.449219 127.726562 230.898438 C 119.550781 222.800781 114.824219 218 107.324219 209.824219 C 97.425781 199.023438 82.5 181.851562 74.175781 171.5 C 68.773438 164.75 65.625 160.773438 61.351562 154.398438 C 56.398438 146.976562 51 137.300781 46.726562 129.351562 C 42.898438 122.375 40.425781 117.5 36.675781 109.398438 C 30.976562 97.023438 23.101562 75.726562 16.726562 61.773438 C 11.625 50.601562 4.050781 38.675781 1.875 31.851562 C 0.824219 28.550781 0.601562 26.75 0.601562 24.199219 C 0.601562 21.648438 1.050781 18.949219 1.875 16.476562 C 2.699219 14.074219 3.976562 11.675781 5.550781 9.574219 C 7.050781 7.550781 9.074219 5.675781 11.175781 4.25 C 13.273438 2.824219 15.824219 1.699219 18.226562 0.949219 C 20.699219 0.273438 23.476562 -0.0234375 26.023438 0.125 C 28.574219 0.273438 31.199219 0.875 33.601562 1.851562 C 36 2.75 38.324219 4.175781 40.273438 5.824219 C 42.226562 7.476562 44.023438 9.574219 45.300781 11.75 C 46.648438 14 47.699219 16.476562 48.226562 19.023438 C 48.75 21.5 48.898438 24.273438 48.601562 26.824219 C 48.375 29.375 47.625 32 46.574219 34.324219 C 45.449219 36.648438 43.949219 38.898438 42.148438 40.773438 C 40.425781 42.574219 38.25 44.300781 36 45.425781 C 33.675781 46.625 31.125 47.523438 28.574219 47.976562 C 26.023438 48.351562 23.324219 48.351562 20.773438 47.976562 C 18.300781 47.523438 15.675781 46.625 13.425781 45.425781 C 11.175781 44.226562 9 42.574219 7.199219 40.773438 C 5.476562 38.898438 3.898438 36.648438 2.851562 34.324219 C 1.800781 32 1.050781 29.300781 0.75 26.75 C 0.449219 24.199219 0.601562 21.5 1.199219 19.023438 C 1.726562 16.476562 2.773438 13.925781 4.050781 11.75 C 5.398438 9.574219 7.125 7.476562 9.148438 5.824219 C 11.101562 4.175781 13.425781 2.75 15.824219 1.851562 C 18.148438 0.875 20.851562 0.273438 23.398438 0.125 C 25.949219 -0.0234375 28.648438 0.273438 31.125 1.023438 C 33.601562 1.699219 36.074219 2.824219 38.25 4.25 C 40.351562 5.675781 42.226562 7.773438 43.875 9.648438 C 45.300781 11.300781 46.050781 12.125 47.625 14.898438 C 51.976562 22.625 62.851562 48.949219 68.175781 61.851562 C 71.925781 70.773438 73.875 77.148438 77.101562 84.800781 C 80.398438 92.523438 84.074219 100.476562 87.824219 107.824219 C 91.5 114.949219 94.875 121.398438 99.300781 128.226562 C 104.101562 135.648438 108.976562 142.25 115.726562 150.425781 C 124.949219 161.675781 137.25 175.25 150.300781 188.824219 C 166.125 205.324219 192.148438 228.800781 204.601562 241.851562 C 211.574219 249.050781 213.601562 251.601562 220.125 259.25 C 232.199219 273.5 257.324219 306.050781 270.300781 320.976562 C 277.949219 329.824219 281.851562 333.875 289.273438 341.601562 C 299.25 351.800781 315.226562 366.425781 324.898438 376.476562 C 331.949219 383.824219 336.300781 388.324219 342.601562 395.976562 C 350.925781 405.949219 365.625 425.523438 369.75 431.898438 C 371.175781 434.074219 371.625 434.898438 372.226562 436.476562 C 372.898438 438.125 373.351562 439.851562 373.574219 441.574219 C 373.800781 443.226562 373.875 445.023438 373.648438 446.75 C 373.5 448.476562 373.050781 450.199219 372.523438 451.851562 C 371.925781 453.5 371.101562 455.074219 370.125 456.5 C 369.148438 457.925781 368.023438 459.273438 366.75 460.476562 C 365.476562 461.601562 364.050781 462.648438 362.476562 463.476562 C 360.976562 464.300781 359.324219 464.976562 357.675781 465.425781 C 355.949219 465.875 354.226562 466.101562 352.5 466.101562 C 350.773438 466.175781 348.976562 465.949219 347.324219 465.574219 C 345.601562 465.199219 343.949219 464.601562 342.375 463.851562 C 340.875 463.023438 339.375 462.050781 338.023438 460.925781 C 336.75 459.800781 334.5 457.101562 334.5 457.101562 " clip-rule="nonzero"/></clipPath><clipPath id="42e0f34de3"><rect x="0" width="374" y="0" height="467"/></clipPath><clipPath id="2b5b6b583b"><path d="M 191.050781 190.375 L 308 190.375 L 308 375.382812 L 191.050781 375.382812 Z M 191.050781 190.375 " clip-rule="nonzero"/></clipPath><clipPath id="f08ea3921c"><path d="M 304.726562 223.125 C 284.476562 258.675781 255.375 326.324219 243.675781 347.324219 C 238.726562 356.398438 235.125 361.949219 231.75 366.074219 C 229.800781 368.398438 228.449219 369.75 226.425781 371.101562 C 224.476562 372.449219 222.148438 373.5 219.824219 374.175781 C 217.5 374.851562 214.949219 375.074219 212.550781 375 C 210.148438 374.851562 207.675781 374.324219 205.425781 373.425781 C 203.175781 372.523438 201 371.25 199.199219 369.675781 C 197.324219 368.101562 195.675781 366.148438 194.398438 364.125 C 193.199219 362.101562 192.226562 359.699219 191.699219 357.375 C 191.175781 354.976562 191.023438 352.425781 191.324219 350.101562 C 191.550781 347.699219 192.226562 345.226562 193.199219 343.050781 C 194.25 340.875 195.675781 338.699219 197.324219 336.976562 C 198.976562 335.25 201 333.675781 203.101562 332.550781 C 205.199219 331.425781 207.675781 330.601562 210 330.226562 C 212.398438 329.773438 214.949219 329.773438 217.351562 330.148438 C 219.675781 330.523438 222.148438 331.351562 224.25 332.476562 C 226.351562 333.601562 228.449219 335.175781 230.101562 336.898438 C 231.75 338.625 233.175781 340.726562 234.148438 342.898438 C 235.199219 345.074219 235.875 347.550781 236.175781 349.949219 C 236.398438 352.351562 236.324219 354.898438 235.800781 357.226562 C 235.273438 359.625 234.300781 361.949219 233.101562 364.050781 C 231.824219 366.074219 230.175781 368.023438 228.375 369.601562 C 226.574219 371.175781 224.324219 372.523438 222.148438 373.351562 C 219.898438 374.25 217.425781 374.851562 215.023438 375 C 212.625 375.074219 210.074219 374.851562 207.75 374.175781 C 205.425781 373.574219 203.101562 372.523438 201.148438 371.175781 C 199.125 369.824219 197.25 368.023438 195.824219 366.148438 C 194.324219 364.199219 193.125 361.949219 192.375 359.699219 C 191.625 357.449219 191.175781 354.898438 191.175781 352.5 C 191.175781 350.101562 191.550781 347.550781 192.300781 345.300781 C 193.125 343.050781 194.25 341.324219 195.75 338.851562 C 198 335.175781 201.898438 330.675781 204.898438 325.648438 C 208.648438 319.5 211.726562 313.351562 216.074219 304.425781 C 223.273438 289.949219 235.351562 262.5 243.226562 246.375 C 248.925781 234.675781 253.273438 225.300781 258.375 216.523438 C 262.648438 209.101562 267.824219 200.324219 271.199219 196.648438 C 272.773438 195 273.824219 194.398438 275.324219 193.5 C 276.75 192.601562 278.398438 191.925781 280.050781 191.398438 C 281.699219 190.875 283.425781 190.574219 285.148438 190.5 C 286.875 190.351562 288.601562 190.5 290.324219 190.800781 C 291.976562 191.101562 293.699219 191.625 295.273438 192.375 C 296.851562 193.050781 298.351562 193.949219 299.699219 195.074219 C 301.050781 196.125 302.25 197.398438 303.375 198.75 C 304.425781 200.101562 305.324219 201.601562 306 203.175781 C 306.675781 204.75 307.199219 206.476562 307.574219 208.125 C 307.875 209.851562 307.949219 211.574219 307.800781 213.300781 C 307.726562 215.023438 307.425781 216.75 306.898438 218.398438 C 306.375 220.050781 304.726562 223.125 304.726562 223.125 " clip-rule="nonzero"/></clipPath><clipPath id="0ee62f0d19"><path d="M 0.0507812 0.375 L 117 0.375 L 117 185.121094 L 0.0507812 185.121094 Z M 0.0507812 0.375 " clip-rule="nonzero"/></clipPath><clipPath id="4e2b2460d4"><path d="M 113.726562 33.125 C 93.476562 68.675781 64.375 136.324219 52.675781 157.324219 C 47.726562 166.398438 44.125 171.949219 40.75 176.074219 C 38.800781 178.398438 37.449219 179.75 35.425781 181.101562 C 33.476562 182.449219 31.148438 183.5 28.824219 184.175781 C 26.5 184.851562 23.949219 185.074219 21.550781 185 C 19.148438 184.851562 16.675781 184.324219 14.425781 183.425781 C 12.175781 182.523438 10 181.25 8.199219 179.675781 C 6.324219 178.101562 4.675781 176.148438 3.398438 174.125 C 2.199219 172.101562 1.226562 169.699219 0.699219 167.375 C 0.175781 164.976562 0.0234375 162.425781 0.324219 160.101562 C 0.550781 157.699219 1.226562 155.226562 2.199219 153.050781 C 3.25 150.875 4.675781 148.699219 6.324219 146.976562 C 7.976562 145.25 10 143.675781 12.101562 142.550781 C 14.199219 141.425781 16.675781 140.601562 19 140.226562 C 21.398438 139.773438 23.949219 139.773438 26.351562 140.148438 C 28.675781 140.523438 31.148438 141.351562 33.25 142.476562 C 35.351562 143.601562 37.449219 145.175781 39.101562 146.898438 C 40.75 148.625 42.175781 150.726562 43.148438 152.898438 C 44.199219 155.074219 44.875 157.550781 45.175781 159.949219 C 45.398438 162.351562 45.324219 164.898438 44.800781 167.226562 C 44.273438 169.625 43.300781 171.949219 42.101562 174.050781 C 40.824219 176.074219 39.175781 178.023438 37.375 179.601562 C 35.574219 181.175781 33.324219 182.523438 31.148438 183.351562 C 28.898438 184.25 26.425781 184.851562 24.023438 185 C 21.625 185.074219 19.074219 184.851562 16.75 184.175781 C 14.425781 183.574219 12.101562 182.523438 10.148438 181.175781 C 8.125 179.824219 6.25 178.023438 4.824219 176.148438 C 3.324219 174.199219 2.125 171.949219 1.375 169.699219 C 0.625 167.449219 0.175781 164.898438 0.175781 162.5 C 0.175781 160.101562 0.550781 157.550781 1.300781 155.300781 C 2.125 153.050781 3.25 151.324219 4.75 148.851562 C 7 145.175781 10.898438 140.675781 13.898438 135.648438 C 17.648438 129.5 20.726562 123.351562 25.074219 114.425781 C 32.273438 99.949219 44.351562 72.5 52.226562 56.375 C 57.925781 44.675781 62.273438 35.300781 67.375 26.523438 C 71.648438 19.101562 76.824219 10.324219 80.199219 6.648438 C 81.773438 5 82.824219 4.398438 84.324219 3.5 C 85.75 2.601562 87.398438 1.925781 89.050781 1.398438 C 90.699219 0.875 92.425781 0.574219 94.148438 0.5 C 95.875 0.351562 97.601562 0.5 99.324219 0.800781 C 100.976562 1.101562 102.699219 1.625 104.273438 2.375 C 105.851562 3.050781 107.351562 3.949219 108.699219 5.074219 C 110.050781 6.125 111.25 7.398438 112.375 8.75 C 113.425781 10.101562 114.324219 11.601562 115 13.175781 C 115.675781 14.75 116.199219 16.476562 116.574219 18.125 C 116.875 19.851562 116.949219 21.574219 116.800781 23.300781 C 116.726562 25.023438 116.425781 26.75 115.898438 28.398438 C 115.375 30.050781 113.726562 33.125 113.726562 33.125 " clip-rule="nonzero"/></clipPath><clipPath id="26fb94c841"><rect x="0" width="117" y="0" height="186"/></clipPath><clipPath id="8e82607064"><path d="M 259.496094 181.421875 L 590.78125 181.421875 L 590.78125 277.203125 L 259.496094 277.203125 Z M 259.496094 181.421875 " clip-rule="nonzero"/></clipPath><clipPath id="3ff0c19684"><path d="M 290.023438 183.976562 C 316.199219 196.949219 328.050781 201.976562 339.824219 205.949219 C 353.023438 210.523438 368.550781 214.875 382.726562 218.175781 C 396.226562 221.398438 408.75 223.648438 422.773438 225.75 C 438.226562 228.148438 455.398438 230.101562 471.601562 231.523438 C 487.648438 233.023438 503.476562 234 519.675781 234.601562 C 536.25 235.199219 561.074219 234.300781 570 235.125 C 573.300781 235.425781 574.574219 235.574219 576.675781 236.324219 C 578.773438 237.074219 580.875 238.199219 582.601562 239.550781 C 584.398438 240.898438 585.976562 242.625 587.175781 244.5 C 588.449219 246.375 589.351562 248.550781 589.949219 250.726562 C 590.550781 252.824219 590.773438 255.226562 590.550781 257.398438 C 590.398438 259.648438 589.875 261.976562 589.050781 264 C 588.226562 266.023438 586.949219 268.050781 585.449219 269.773438 C 584.023438 271.425781 582.226562 272.925781 580.273438 274.050781 C 578.324219 275.175781 576.148438 276 573.976562 276.449219 C 571.800781 276.898438 569.398438 276.976562 567.226562 276.75 C 564.976562 276.449219 562.726562 275.773438 560.699219 274.800781 C 558.75 273.898438 556.800781 272.550781 555.148438 270.976562 C 553.574219 269.398438 552.148438 267.523438 551.175781 265.5 C 550.125 263.550781 549.449219 261.300781 549.074219 259.125 C 548.773438 256.875 548.773438 254.550781 549.148438 252.300781 C 549.601562 250.125 550.351562 247.875 551.398438 245.925781 C 552.523438 244.050781 553.949219 242.175781 555.601562 240.675781 C 557.25 239.101562 559.199219 237.824219 561.226562 236.925781 C 563.25 236.023438 565.574219 235.425781 567.75 235.199219 C 570 234.976562 572.324219 235.125 574.5 235.648438 C 576.675781 236.175781 578.851562 237.074219 580.800781 238.273438 C 582.675781 239.398438 584.476562 240.976562 585.824219 242.699219 C 587.25 244.425781 588.449219 246.449219 589.273438 248.550781 C 590.023438 250.648438 590.550781 252.976562 590.625 255.148438 C 590.699219 257.398438 590.398438 259.726562 589.800781 261.898438 C 589.199219 264 588.148438 266.175781 586.875 267.976562 C 585.601562 269.773438 583.949219 271.5 582.148438 272.773438 C 580.351562 274.125 578.25 275.175781 576.148438 275.851562 C 574.050781 276.601562 572.773438 276.675781 569.476562 276.898438 C 560.324219 277.425781 534.523438 276.148438 517.351562 275.398438 C 500.625 274.648438 484.425781 273.898438 467.699219 272.476562 C 450.675781 271.050781 429.898438 268.800781 416.25 267 C 407.25 265.726562 402.523438 265.125 393.75 263.324219 C 381.148438 260.851562 360.449219 255.675781 347.851562 252.226562 C 339 249.824219 333.75 248.398438 325.425781 245.398438 C 314.398438 241.5 298.5 234.976562 287.925781 229.875 C 279.675781 225.898438 270.601562 221.175781 266.699219 218.023438 C 264.898438 216.601562 264.300781 215.625 263.324219 214.273438 C 262.425781 212.925781 261.601562 211.425781 261 209.851562 C 260.398438 208.351562 259.949219 206.625 259.800781 204.976562 C 259.574219 203.324219 259.574219 201.601562 259.726562 200.023438 C 259.949219 198.375 260.324219 196.648438 260.925781 195.148438 C 261.523438 193.574219 262.273438 192 263.25 190.648438 C 264.148438 189.300781 265.351562 188.023438 266.550781 186.898438 C 267.824219 185.773438 269.175781 184.800781 270.675781 184.050781 C 272.175781 183.226562 273.75 182.625 275.324219 182.25 C 276.976562 181.875 278.699219 181.648438 280.351562 181.648438 C 282 181.648438 283.726562 181.800781 285.300781 182.175781 C 286.949219 182.625 290.023438 183.976562 290.023438 183.976562 " clip-rule="nonzero"/></clipPath><clipPath id="70f34313d4"><path d="M 0.496094 0.441406 L 331.78125 0.441406 L 331.78125 96.203125 L 0.496094 96.203125 Z M 0.496094 0.441406 " clip-rule="nonzero"/></clipPath><clipPath id="90b501dda3"><path d="M 31.023438 2.976562 C 57.199219 15.949219 69.050781 20.976562 80.824219 24.949219 C 94.023438 29.523438 109.550781 33.875 123.726562 37.175781 C 137.226562 40.398438 149.75 42.648438 163.773438 44.75 C 179.226562 47.148438 196.398438 49.101562 212.601562 50.523438 C 228.648438 52.023438 244.476562 53 260.675781 53.601562 C 277.25 54.199219 302.074219 53.300781 311 54.125 C 314.300781 54.425781 315.574219 54.574219 317.675781 55.324219 C 319.773438 56.074219 321.875 57.199219 323.601562 58.550781 C 325.398438 59.898438 326.976562 61.625 328.175781 63.5 C 329.449219 65.375 330.351562 67.550781 330.949219 69.726562 C 331.550781 71.824219 331.773438 74.226562 331.550781 76.398438 C 331.398438 78.648438 330.875 80.976562 330.050781 83 C 329.226562 85.023438 327.949219 87.050781 326.449219 88.773438 C 325.023438 90.425781 323.226562 91.925781 321.273438 93.050781 C 319.324219 94.175781 317.148438 95 314.976562 95.449219 C 312.800781 95.898438 310.398438 95.976562 308.226562 95.75 C 305.976562 95.449219 303.726562 94.773438 301.699219 93.800781 C 299.75 92.898438 297.800781 91.550781 296.148438 89.976562 C 294.574219 88.398438 293.148438 86.523438 292.175781 84.5 C 291.125 82.550781 290.449219 80.300781 290.074219 78.125 C 289.773438 75.875 289.773438 73.550781 290.148438 71.300781 C 290.601562 69.125 291.351562 66.875 292.398438 64.925781 C 293.523438 63.050781 294.949219 61.175781 296.601562 59.675781 C 298.25 58.101562 300.199219 56.824219 302.226562 55.925781 C 304.25 55.023438 306.574219 54.425781 308.75 54.199219 C 311 53.976562 313.324219 54.125 315.5 54.648438 C 317.675781 55.175781 319.851562 56.074219 321.800781 57.273438 C 323.675781 58.398438 325.476562 59.976562 326.824219 61.699219 C 328.25 63.425781 329.449219 65.449219 330.273438 67.550781 C 331.023438 69.648438 331.550781 71.976562 331.625 74.148438 C 331.699219 76.398438 331.398438 78.726562 330.800781 80.898438 C 330.199219 83 329.148438 85.175781 327.875 86.976562 C 326.601562 88.773438 324.949219 90.5 323.148438 91.773438 C 321.351562 93.125 319.25 94.175781 317.148438 94.851562 C 315.050781 95.601562 313.773438 95.675781 310.476562 95.898438 C 301.324219 96.425781 275.523438 95.148438 258.351562 94.398438 C 241.625 93.648438 225.425781 92.898438 208.699219 91.476562 C 191.675781 90.050781 170.898438 87.800781 157.25 86 C 148.25 84.726562 143.523438 84.125 134.75 82.324219 C 122.148438 79.851562 101.449219 74.675781 88.851562 71.226562 C 80 68.824219 74.75 67.398438 66.425781 64.398438 C 55.398438 60.5 39.5 53.976562 28.925781 48.875 C 20.675781 44.898438 11.601562 40.175781 7.699219 37.023438 C 5.898438 35.601562 5.300781 34.625 4.324219 33.273438 C 3.425781 31.925781 2.601562 30.425781 2 28.851562 C 1.398438 27.351562 0.949219 25.625 0.800781 23.976562 C 0.574219 22.324219 0.574219 20.601562 0.726562 19.023438 C 0.949219 17.375 1.324219 15.648438 1.925781 14.148438 C 2.523438 12.574219 3.273438 11 4.25 9.648438 C 5.148438 8.300781 6.351562 7.023438 7.550781 5.898438 C 8.824219 4.773438 10.175781 3.800781 11.675781 3.050781 C 13.175781 2.226562 14.75 1.625 16.324219 1.25 C 17.976562 0.875 19.699219 0.648438 21.351562 0.648438 C 23 0.648438 24.726562 0.800781 26.300781 1.175781 C 27.949219 1.625 31.023438 2.976562 31.023438 2.976562 " clip-rule="nonzero"/></clipPath><clipPath id="55c7addec7"><rect x="0" width="332" y="0" height="97"/></clipPath></defs><rect x="-76.8" width="921.6" fill="#ffffff" y="-76.799999" height="921.599993" fill-opacity="1"/><rect x="-76.8" width="921.6" fill="#545454" y="-76.799999" height="921.599993" fill-opacity="1"/><g clip-path="url(#bc83c4a11c)"><g clip-path="url(#cde5634569)"><g transform="matrix(1, 0, 0, 1, 270, 208)"><g clip-path="url(#42e0f34de3)"><g clip-path="url(#b820c8376b)"><g clip-path="url(#3b34c94008)"><rect x="-438.96" width="1105.92" fill="#0581d3" height="1105.919991" y="-376.959999" fill-opacity="1"/></g></g></g></g></g></g><g clip-path="url(#2b5b6b583b)"><g clip-path="url(#f08ea3921c)"><g transform="matrix(1, 0, 0, 1, 191, 190)"><g clip-path="url(#26fb94c841)"><g clip-path="url(#0ee62f0d19)"><g clip-path="url(#4e2b2460d4)"><rect x="-359.96" width="1105.92" fill="#0581d3" height="1105.919991" y="-358.959999" fill-opacity="1"/></g></g></g></g></g></g><g clip-path="url(#8e82607064)"><g clip-path="url(#3ff0c19684)"><g transform="matrix(1, 0, 0, 1, 259, 181)"><g clip-path="url(#55c7addec7)"><g clip-path="url(#70f34313d4)"><g clip-path="url(#90b501dda3)"><rect x="-427.96" width="1105.92" fill="#0581d3" height="1105.919991" y="-349.959999" fill-opacity="1"/></g></g></g></g></g></g></svg>