<svg xmlns="http://www.w3.org/2000/svg" xmlns:xlink="http://www.w3.org/1999/xlink" width="1024" zoomAndPan="magnify" viewBox="0 0 768 767.999994" height="1024" preserveAspectRatio="xMidYMid meet" version="1.0"><defs><clipPath id="36329b5d70"><path d="M 55.902344 122.378906 L 159.1875 122.378906 L 159.1875 291.433594 L 55.902344 291.433594 Z M 55.902344 122.378906 " clip-rule="nonzero"/></clipPath><clipPath id="dcbc9de7fa"><path d="M 55.949219 270.898438 C 55.949219 267.226562 55.949219 265.425781 55.949219 265.425781 C 55.949219 265.351562 58.5 249.226562 59.925781 240.148438 C 61.574219 229.574219 63.824219 216.300781 65.324219 205.800781 C 66.675781 196.949219 68.851562 187.648438 68.773438 181.199219 C 68.773438 177 67.574219 173.773438 67.351562 170.925781 C 67.199219 168.898438 67.050781 167.476562 67.199219 165.75 C 67.425781 164.023438 67.800781 162.300781 68.398438 160.648438 C 68.925781 159 69.75 157.425781 70.648438 156 C 71.625 154.574219 73.199219 152.773438 74.023438 152.023438 C 74.476562 151.648438 74.625 151.800781 75.074219 151.273438 C 76.800781 149.175781 79.351562 136.050781 84.226562 131.25 C 89.023438 126.601562 96.824219 123.300781 103.875 122.851562 C 111.75 122.324219 122.398438 125.851562 129.449219 129.898438 C 135.824219 133.574219 140.476562 138.824219 144.898438 144.976562 C 149.925781 151.949219 154.875 161.476562 156.976562 170.25 C 159.074219 178.875 160.050781 189.074219 157.875 197.023438 C 155.851562 204.601562 150.449219 211.574219 145.199219 217.199219 C 139.949219 222.824219 131.851562 228.300781 126.375 230.925781 C 122.699219 232.648438 118.648438 232.949219 116.550781 233.625 C 115.5 234 114.824219 234.449219 114.226562 234.601562 C 113.925781 234.675781 113.699219 234.375 113.398438 234.601562 C 111.675781 235.875 107.550781 250.648438 105.449219 257.25 C 103.800781 262.351562 102.226562 268.125 101.476562 270.976562 C 101.175781 272.175781 101.023438 272.699219 100.800781 273.601562 C 100.574219 274.5 100.199219 276.300781 100.125 276.300781 C 100.125 276.375 99.300781 277.949219 98.851562 278.773438 C 98.476562 279.601562 97.574219 281.175781 97.574219 281.175781 C 97.574219 281.25 96.375 282.601562 95.773438 283.273438 C 95.175781 283.949219 93.976562 285.300781 93.898438 285.300781 C 93.898438 285.375 92.398438 286.351562 91.648438 286.875 C 90.898438 287.398438 89.398438 288.449219 89.398438 288.449219 C 89.324219 288.523438 87.675781 289.125 86.773438 289.425781 C 85.949219 289.800781 84.226562 290.398438 84.226562 290.398438 C 84.148438 290.476562 82.351562 290.625 81.449219 290.773438 C 80.550781 290.851562 78.75 291.074219 78.75 291.074219 C 78.675781 291.074219 76.875 290.851562 75.976562 290.773438 C 75.074219 290.625 73.273438 290.398438 73.199219 290.398438 C 73.199219 290.398438 71.476562 289.800781 70.648438 289.425781 C 69.824219 289.125 68.101562 288.449219 68.101562 288.449219 C 68.023438 288.449219 66.523438 287.398438 65.773438 286.875 C 65.023438 286.351562 63.523438 285.375 63.523438 285.300781 C 63.523438 285.300781 62.324219 283.949219 61.726562 283.273438 C 61.050781 282.601562 59.851562 281.25 59.851562 281.175781 C 59.851562 281.175781 59.023438 279.523438 58.574219 278.773438 C 58.125 277.949219 57.300781 276.300781 57.300781 276.300781 C 57.300781 276.226562 56.851562 274.5 56.625 273.601562 C 56.398438 272.699219 55.949219 270.976562 55.949219 270.898438 " clip-rule="nonzero"/></clipPath><clipPath id="5bdb516113"><path d="M 0.921875 0.378906 L 104.1875 0.378906 L 104.1875 169.121094 L 0.921875 169.121094 Z M 0.921875 0.378906 " clip-rule="nonzero"/></clipPath><clipPath id="9e97ef2b5f"><path d="M 0.949219 148.898438 C 0.949219 145.226562 0.949219 143.425781 0.949219 143.425781 C 0.949219 143.351562 3.5 127.226562 4.925781 118.148438 C 6.574219 107.574219 8.824219 94.300781 10.324219 83.800781 C 11.675781 74.949219 13.851562 65.648438 13.773438 59.199219 C 13.773438 55 12.574219 51.773438 12.351562 48.925781 C 12.199219 46.898438 12.050781 45.476562 12.199219 43.75 C 12.425781 42.023438 12.800781 40.300781 13.398438 38.648438 C 13.925781 37 14.75 35.425781 15.648438 34 C 16.625 32.574219 18.199219 30.773438 19.023438 30.023438 C 19.476562 29.648438 19.625 29.800781 20.074219 29.273438 C 21.800781 27.175781 24.351562 14.050781 29.226562 9.25 C 34.023438 4.601562 41.824219 1.300781 48.875 0.851562 C 56.75 0.324219 67.398438 3.851562 74.449219 7.898438 C 80.824219 11.574219 85.476562 16.824219 89.898438 22.976562 C 94.925781 29.949219 99.875 39.476562 101.976562 48.25 C 104.074219 56.875 105.050781 67.074219 102.875 75.023438 C 100.851562 82.601562 95.449219 89.574219 90.199219 95.199219 C 84.949219 100.824219 76.851562 106.300781 71.375 108.925781 C 67.699219 110.648438 63.648438 110.949219 61.550781 111.625 C 60.5 112 59.824219 112.449219 59.226562 112.601562 C 58.925781 112.675781 58.699219 112.375 58.398438 112.601562 C 56.675781 113.875 52.550781 128.648438 50.449219 135.25 C 48.800781 140.351562 47.226562 146.125 46.476562 148.976562 C 46.175781 150.175781 46.023438 150.699219 45.800781 151.601562 C 45.574219 152.5 45.199219 154.300781 45.125 154.300781 C 45.125 154.375 44.300781 155.949219 43.851562 156.773438 C 43.476562 157.601562 42.574219 159.175781 42.574219 159.175781 C 42.574219 159.25 41.375 160.601562 40.773438 161.273438 C 40.175781 161.949219 38.976562 163.300781 38.898438 163.300781 C 38.898438 163.375 37.398438 164.351562 36.648438 164.875 C 35.898438 165.398438 34.398438 166.449219 34.398438 166.449219 C 34.324219 166.523438 32.675781 167.125 31.773438 167.425781 C 30.949219 167.800781 29.226562 168.398438 29.226562 168.398438 C 29.148438 168.476562 27.351562 168.625 26.449219 168.773438 C 25.550781 168.851562 23.75 169.074219 23.75 169.074219 C 23.675781 169.074219 21.875 168.851562 20.976562 168.773438 C 20.074219 168.625 18.273438 168.398438 18.199219 168.398438 C 18.199219 168.398438 16.476562 167.800781 15.648438 167.425781 C 14.824219 167.125 13.101562 166.449219 13.101562 166.449219 C 13.023438 166.449219 11.523438 165.398438 10.773438 164.875 C 10.023438 164.351562 8.523438 163.375 8.523438 163.300781 C 8.523438 163.300781 7.324219 161.949219 6.726562 161.273438 C 6.050781 160.601562 4.851562 159.25 4.851562 159.175781 C 4.851562 159.175781 4.023438 157.523438 3.574219 156.773438 C 3.125 155.949219 2.300781 154.300781 2.300781 154.300781 C 2.300781 154.226562 1.851562 152.5 1.625 151.601562 C 1.398438 150.699219 0.949219 148.976562 0.949219 148.898438 " clip-rule="nonzero"/></clipPath><clipPath id="ec0eb6d106"><rect x="0" width="105" y="0" height="170"/></clipPath><clipPath id="dd9d82a6e8"><path d="M 131.480469 200 L 257 200 L 257 348 L 131.480469 348 Z M 131.480469 200 " clip-rule="nonzero"/></clipPath><clipPath id="af0e7aaea0"><path d="M 240.75 243.75 C 235.050781 268.425781 230.773438 279.75 226.800781 288.300781 C 223.199219 295.949219 221.925781 305.25 215.023438 309.375 C 205.5 315 175.425781 316.050781 169.425781 309.601562 C 165.074219 304.875 169.800781 292.5 171.449219 284.773438 C 173.023438 277.5 177.226562 264.074219 178.574219 264.226562 C 180.148438 264.523438 175.125 286.648438 179.398438 292.125 C 183.148438 296.925781 192.148438 296.550781 199.875 297.824219 C 209.625 299.476562 226.199219 298.949219 233.398438 299.851562 C 236.925781 300.300781 238.648438 300.449219 241.050781 301.273438 C 243.449219 302.175781 245.851562 303.523438 247.875 305.101562 C 249.824219 306.75 251.625 308.773438 253.050781 310.949219 C 254.398438 313.050781 255.523438 315.601562 256.125 318.074219 C 256.726562 320.550781 256.949219 323.25 256.726562 325.800781 C 256.5 328.351562 255.898438 331.050781 254.851562 333.375 C 253.875 335.699219 252.375 338.023438 250.648438 339.898438 C 249 341.851562 246.824219 343.5 244.648438 344.773438 C 242.398438 346.050781 239.851562 347.023438 237.300781 347.476562 C 234.824219 347.925781 232.050781 348 229.574219 347.699219 C 227.023438 347.324219 224.398438 346.574219 222.074219 345.375 C 219.824219 344.25 217.574219 342.675781 215.773438 340.875 C 213.976562 339.074219 212.398438 336.824219 211.273438 334.574219 C 210.074219 332.25 209.324219 329.625 208.949219 327.148438 C 208.648438 324.601562 208.726562 321.824219 209.175781 319.351562 C 209.625 316.800781 210.601562 314.25 211.875 312.074219 C 213.074219 309.824219 214.800781 307.648438 216.75 306 C 218.625 304.273438 220.949219 302.773438 223.273438 301.800781 C 225.601562 300.75 228.300781 300.148438 230.851562 299.925781 C 233.398438 299.699219 236.101562 299.925781 238.574219 300.523438 C 241.050781 301.125 243.601562 302.25 245.699219 303.601562 C 247.875 305.023438 249.898438 306.824219 251.550781 308.773438 C 253.125 310.800781 254.476562 313.199219 255.375 315.601562 C 256.199219 318 256.726562 320.625 256.800781 323.25 C 256.875 325.800781 256.5 328.5 255.75 330.898438 C 255 333.375 253.800781 335.851562 252.300781 337.875 C 250.800781 339.976562 248.851562 341.925781 246.824219 343.425781 C 244.726562 344.925781 242.25 346.125 239.851562 346.875 C 237.375 347.625 235.199219 347.699219 232.125 347.925781 C 227.476562 348.148438 220.949219 347.773438 214.574219 347.398438 C 207 346.949219 197.476562 346.351562 189.601562 344.925781 C 182.324219 343.648438 175.648438 342.300781 168.976562 339.675781 C 162 336.898438 154.425781 334.050781 148.726562 328.648438 C 142.199219 322.425781 136.125 312.300781 133.351562 303.148438 C 130.574219 294.074219 131.699219 282.898438 131.925781 273.976562 C 132.148438 266.398438 132.675781 260.476562 134.023438 253.050781 C 135.675781 244.351562 137.625 233.101562 141.75 225.148438 C 145.425781 217.949219 150.300781 210.898438 156.449219 206.773438 C 162.375 202.726562 170.324219 200.398438 177.601562 200.25 C 185.25 200.101562 194.175781 202.199219 201.148438 206.398438 C 208.875 211.125 216.976562 220.425781 221.101562 228.601562 C 224.851562 236.101562 225.898438 244.726562 226.050781 253.199219 C 226.273438 262.199219 224.550781 272.699219 221.773438 281.175781 C 219.300781 288.976562 216.074219 301.5 210.898438 302.398438 C 204.300781 303.449219 185.25 285.601562 183.449219 276.300781 C 181.949219 268.425781 192.300781 259.5 195.074219 251.324219 C 197.625 244.050781 198.375 234.375 200.25 230.023438 C 201.148438 227.925781 201.976562 226.949219 203.023438 225.601562 C 204.148438 224.324219 205.425781 223.050781 206.773438 222.074219 C 208.199219 221.023438 209.699219 220.125 211.351562 219.449219 C 212.925781 218.773438 214.648438 218.324219 216.300781 218.023438 C 218.023438 217.800781 219.824219 217.726562 221.476562 217.875 C 223.199219 218.023438 225 218.324219 226.574219 218.925781 C 228.226562 219.449219 229.800781 220.199219 231.300781 221.175781 C 232.726562 222.074219 234.074219 223.199219 235.273438 224.476562 C 236.476562 225.675781 237.523438 227.101562 238.425781 228.601562 C 239.25 230.101562 239.925781 231.75 240.375 233.398438 C 240.898438 235.050781 241.125 236.851562 241.199219 238.574219 C 241.273438 240.300781 240.75 243.75 240.75 243.75 " clip-rule="nonzero"/></clipPath><clipPath id="a102ef4954"><path d="M 0.480469 0 L 126 0 L 126 148 L 0.480469 148 Z M 0.480469 0 " clip-rule="nonzero"/></clipPath><clipPath id="a74319ceef"><path d="M 109.75 43.75 C 104.050781 68.425781 99.773438 79.75 95.800781 88.300781 C 92.199219 95.949219 90.925781 105.25 84.023438 109.375 C 74.5 115 44.425781 116.050781 38.425781 109.601562 C 34.074219 104.875 38.800781 92.5 40.449219 84.773438 C 42.023438 77.5 46.226562 64.074219 47.574219 64.226562 C 49.148438 64.523438 44.125 86.648438 48.398438 92.125 C 52.148438 96.925781 61.148438 96.550781 68.875 97.824219 C 78.625 99.476562 95.199219 98.949219 102.398438 99.851562 C 105.925781 100.300781 107.648438 100.449219 110.050781 101.273438 C 112.449219 102.175781 114.851562 103.523438 116.875 105.101562 C 118.824219 106.75 120.625 108.773438 122.050781 110.949219 C 123.398438 113.050781 124.523438 115.601562 125.125 118.074219 C 125.726562 120.550781 125.949219 123.25 125.726562 125.800781 C 125.5 128.351562 124.898438 131.050781 123.851562 133.375 C 122.875 135.699219 121.375 138.023438 119.648438 139.898438 C 118 141.851562 115.824219 143.5 113.648438 144.773438 C 111.398438 146.050781 108.851562 147.023438 106.300781 147.476562 C 103.824219 147.925781 101.050781 148 98.574219 147.699219 C 96.023438 147.324219 93.398438 146.574219 91.074219 145.375 C 88.824219 144.25 86.574219 142.675781 84.773438 140.875 C 82.976562 139.074219 81.398438 136.824219 80.273438 134.574219 C 79.074219 132.25 78.324219 129.625 77.949219 127.148438 C 77.648438 124.601562 77.726562 121.824219 78.175781 119.351562 C 78.625 116.800781 79.601562 114.25 80.875 112.074219 C 82.074219 109.824219 83.800781 107.648438 85.75 106 C 87.625 104.273438 89.949219 102.773438 92.273438 101.800781 C 94.601562 100.75 97.300781 100.148438 99.851562 99.925781 C 102.398438 99.699219 105.101562 99.925781 107.574219 100.523438 C 110.050781 101.125 112.601562 102.25 114.699219 103.601562 C 116.875 105.023438 118.898438 106.824219 120.550781 108.773438 C 122.125 110.800781 123.476562 113.199219 124.375 115.601562 C 125.199219 118 125.726562 120.625 125.800781 123.25 C 125.875 125.800781 125.5 128.5 124.75 130.898438 C 124 133.375 122.800781 135.851562 121.300781 137.875 C 119.800781 139.976562 117.851562 141.925781 115.824219 143.425781 C 113.726562 144.925781 111.25 146.125 108.851562 146.875 C 106.375 147.625 104.199219 147.699219 101.125 147.925781 C 96.476562 148.148438 89.949219 147.773438 83.574219 147.398438 C 76 146.949219 66.476562 146.351562 58.601562 144.925781 C 51.324219 143.648438 44.648438 142.300781 37.976562 139.675781 C 31 136.898438 23.425781 134.050781 17.726562 128.648438 C 11.199219 122.425781 5.125 112.300781 2.351562 103.148438 C -0.425781 94.074219 0.699219 82.898438 0.925781 73.976562 C 1.148438 66.398438 1.675781 60.476562 3.023438 53.050781 C 4.675781 44.351562 6.625 33.101562 10.75 25.148438 C 14.425781 17.949219 19.300781 10.898438 25.449219 6.773438 C 31.375 2.726562 39.324219 0.398438 46.601562 0.25 C 54.25 0.101562 63.175781 2.199219 70.148438 6.398438 C 77.875 11.125 85.976562 20.425781 90.101562 28.601562 C 93.851562 36.101562 94.898438 44.726562 95.050781 53.199219 C 95.273438 62.199219 93.550781 72.699219 90.773438 81.175781 C 88.300781 88.976562 85.074219 101.5 79.898438 102.398438 C 73.300781 103.449219 54.25 85.601562 52.449219 76.300781 C 50.949219 68.425781 61.300781 59.5 64.074219 51.324219 C 66.625 44.050781 67.375 34.375 69.25 30.023438 C 70.148438 27.925781 70.976562 26.949219 72.023438 25.601562 C 73.148438 24.324219 74.425781 23.050781 75.773438 22.074219 C 77.199219 21.023438 78.699219 20.125 80.351562 19.449219 C 81.925781 18.773438 83.648438 18.324219 85.300781 18.023438 C 87.023438 17.800781 88.824219 17.726562 90.476562 17.875 C 92.199219 18.023438 94 18.324219 95.574219 18.925781 C 97.226562 19.449219 98.800781 20.199219 100.300781 21.175781 C 101.726562 22.074219 103.074219 23.199219 104.273438 24.476562 C 105.476562 25.675781 106.523438 27.101562 107.425781 28.601562 C 108.25 30.101562 108.925781 31.75 109.375 33.398438 C 109.898438 35.050781 110.125 36.851562 110.199219 38.574219 C 110.273438 40.300781 109.75 43.75 109.75 43.75 " clip-rule="nonzero"/></clipPath><clipPath id="b02e9aae26"><rect x="0" width="126" y="0" height="148"/></clipPath><clipPath id="af0d191b7c"><path d="M 283.476562 229.550781 L 407.292969 229.550781 L 407.292969 427 L 283.476562 427 Z M 283.476562 229.550781 " clip-rule="nonzero"/></clipPath><clipPath id="ad0d669e86"><path d="M 343.648438 274.050781 C 325.351562 277.273438 328.125 293.175781 329.023438 302.25 C 329.773438 310.425781 331.726562 317.925781 333.824219 325.5 C 335.925781 333.148438 338.25 340.425781 341.699219 347.925781 C 345.449219 356.101562 349.273438 367.425781 356.023438 372.75 C 362.25 377.773438 372.898438 378.675781 379.648438 380.175781 C 384.523438 381.300781 389.101562 380.773438 392.550781 382.050781 C 395.175781 382.949219 397.125 384.300781 399 385.875 C 400.949219 387.523438 402.601562 389.550781 403.875 391.648438 C 405.148438 393.75 406.199219 396.226562 406.726562 398.625 C 407.25 401.023438 407.398438 403.648438 407.101562 406.125 C 406.875 408.601562 406.125 411.148438 405.074219 413.398438 C 404.101562 415.648438 402.601562 417.824219 400.875 419.625 C 399.226562 421.425781 397.125 423 394.875 424.199219 C 392.699219 425.324219 390.226562 426.148438 387.75 426.601562 C 385.351562 426.976562 382.726562 426.976562 380.25 426.601562 C 377.851562 426.226562 375.300781 425.324219 373.125 424.199219 C 370.949219 423.074219 368.851562 421.425781 367.125 419.625 C 365.398438 417.824219 363.976562 415.648438 362.925781 413.398438 C 361.875 411.148438 361.125 408.675781 360.898438 406.199219 C 360.601562 403.726562 360.75 401.101562 361.273438 398.699219 C 361.800781 396.226562 362.773438 393.824219 364.050781 391.648438 C 365.324219 389.550781 367.050781 387.523438 368.925781 385.949219 C 370.800781 384.375 373.050781 382.949219 375.375 382.050781 C 377.699219 381.148438 380.25 380.550781 382.726562 380.398438 C 385.199219 380.324219 387.824219 380.550781 390.226562 381.226562 C 392.550781 381.898438 394.949219 383.023438 397.050781 384.375 C 399.074219 385.800781 401.023438 387.601562 402.523438 389.550781 C 404.023438 391.5 405.226562 393.824219 406.050781 396.226562 C 406.800781 398.550781 407.25 401.175781 407.25 403.648438 C 407.25 406.125 406.800781 408.675781 406.050781 411.074219 C 405.226562 413.398438 404.023438 415.726562 402.523438 417.675781 C 401.023438 419.699219 399.074219 421.5 397.050781 422.851562 C 395.023438 424.273438 392.625 425.398438 390.226562 426.074219 C 387.824219 426.675781 385.648438 426.824219 382.800781 426.824219 C 378.75 426.976562 373.648438 426.75 368.25 425.925781 C 361.273438 424.875 351.75 423.449219 344.476562 420.148438 C 337.351562 416.851562 330.523438 411.675781 324.976562 406.199219 C 319.5 400.726562 315.449219 394.050781 311.324219 387.375 C 307.050781 380.324219 303.226562 372.976562 299.851562 364.875 C 296.101562 356.101562 292.726562 346.425781 290.101562 336.449219 C 287.324219 325.800781 284.625 313.351562 283.949219 302.925781 C 283.351562 294 283.949219 286.050781 285.226562 277.949219 C 286.425781 270.074219 287.625 261.976562 291.148438 255.074219 C 294.75 248.023438 300.148438 240.300781 306.824219 236.101562 C 313.5 231.898438 323.550781 230.625 331.273438 230.023438 C 338.175781 229.5 346.648438 230.625 350.851562 231.675781 C 353.101562 232.199219 354.148438 232.875 355.648438 233.773438 C 357.148438 234.601562 358.574219 235.726562 359.851562 236.925781 C 361.050781 238.125 362.175781 239.550781 363.074219 240.976562 C 363.976562 242.476562 364.726562 244.050781 365.324219 245.699219 C 365.851562 247.351562 366.148438 249.148438 366.300781 250.875 C 366.449219 252.601562 366.300781 254.324219 366.074219 256.050781 C 365.773438 257.773438 365.25 259.5 364.574219 261.074219 C 363.898438 262.648438 363 264.148438 361.949219 265.574219 C 360.898438 266.925781 359.625 268.199219 358.273438 269.324219 C 356.925781 270.375 355.425781 271.351562 353.851562 272.023438 C 352.273438 272.773438 350.550781 273.300781 348.898438 273.675781 C 347.175781 273.976562 343.648438 274.050781 343.648438 274.050781 " clip-rule="nonzero"/></clipPath><clipPath id="b3104b626a"><path d="M 0.476562 0.550781 L 124.292969 0.550781 L 124.292969 198 L 0.476562 198 Z M 0.476562 0.550781 " clip-rule="nonzero"/></clipPath><clipPath id="51da7015a5"><path d="M 60.648438 45.050781 C 42.351562 48.273438 45.125 64.175781 46.023438 73.25 C 46.773438 81.425781 48.726562 88.925781 50.824219 96.5 C 52.925781 104.148438 55.25 111.425781 58.699219 118.925781 C 62.449219 127.101562 66.273438 138.425781 73.023438 143.75 C 79.25 148.773438 89.898438 149.675781 96.648438 151.175781 C 101.523438 152.300781 106.101562 151.773438 109.550781 153.050781 C 112.175781 153.949219 114.125 155.300781 116 156.875 C 117.949219 158.523438 119.601562 160.550781 120.875 162.648438 C 122.148438 164.75 123.199219 167.226562 123.726562 169.625 C 124.25 172.023438 124.398438 174.648438 124.101562 177.125 C 123.875 179.601562 123.125 182.148438 122.074219 184.398438 C 121.101562 186.648438 119.601562 188.824219 117.875 190.625 C 116.226562 192.425781 114.125 194 111.875 195.199219 C 109.699219 196.324219 107.226562 197.148438 104.75 197.601562 C 102.351562 197.976562 99.726562 197.976562 97.25 197.601562 C 94.851562 197.226562 92.300781 196.324219 90.125 195.199219 C 87.949219 194.074219 85.851562 192.425781 84.125 190.625 C 82.398438 188.824219 80.976562 186.648438 79.925781 184.398438 C 78.875 182.148438 78.125 179.675781 77.898438 177.199219 C 77.601562 174.726562 77.75 172.101562 78.273438 169.699219 C 78.800781 167.226562 79.773438 164.824219 81.050781 162.648438 C 82.324219 160.550781 84.050781 158.523438 85.925781 156.949219 C 87.800781 155.375 90.050781 153.949219 92.375 153.050781 C 94.699219 152.148438 97.25 151.550781 99.726562 151.398438 C 102.199219 151.324219 104.824219 151.550781 107.226562 152.226562 C 109.550781 152.898438 111.949219 154.023438 114.050781 155.375 C 116.074219 156.800781 118.023438 158.601562 119.523438 160.550781 C 121.023438 162.5 122.226562 164.824219 123.050781 167.226562 C 123.800781 169.550781 124.25 172.175781 124.25 174.648438 C 124.25 177.125 123.800781 179.675781 123.050781 182.074219 C 122.226562 184.398438 121.023438 186.726562 119.523438 188.675781 C 118.023438 190.699219 116.074219 192.5 114.050781 193.851562 C 112.023438 195.273438 109.625 196.398438 107.226562 197.074219 C 104.824219 197.675781 102.648438 197.824219 99.800781 197.824219 C 95.75 197.976562 90.648438 197.75 85.25 196.925781 C 78.273438 195.875 68.75 194.449219 61.476562 191.148438 C 54.351562 187.851562 47.523438 182.675781 41.976562 177.199219 C 36.5 171.726562 32.449219 165.050781 28.324219 158.375 C 24.050781 151.324219 20.226562 143.976562 16.851562 135.875 C 13.101562 127.101562 9.726562 117.425781 7.101562 107.449219 C 4.324219 96.800781 1.625 84.351562 0.949219 73.925781 C 0.351562 65 0.949219 57.050781 2.226562 48.949219 C 3.425781 41.074219 4.625 32.976562 8.148438 26.074219 C 11.75 19.023438 17.148438 11.300781 23.824219 7.101562 C 30.5 2.898438 40.550781 1.625 48.273438 1.023438 C 55.175781 0.5 63.648438 1.625 67.851562 2.675781 C 70.101562 3.199219 71.148438 3.875 72.648438 4.773438 C 74.148438 5.601562 75.574219 6.726562 76.851562 7.925781 C 78.050781 9.125 79.175781 10.550781 80.074219 11.976562 C 80.976562 13.476562 81.726562 15.050781 82.324219 16.699219 C 82.851562 18.351562 83.148438 20.148438 83.300781 21.875 C 83.449219 23.601562 83.300781 25.324219 83.074219 27.050781 C 82.773438 28.773438 82.25 30.5 81.574219 32.074219 C 80.898438 33.648438 80 35.148438 78.949219 36.574219 C 77.898438 37.925781 76.625 39.199219 75.273438 40.324219 C 73.925781 41.375 72.425781 42.351562 70.851562 43.023438 C 69.273438 43.773438 67.550781 44.300781 65.898438 44.675781 C 64.175781 44.976562 60.648438 45.050781 60.648438 45.050781 " clip-rule="nonzero"/></clipPath><clipPath id="97056aace7"><rect x="0" width="125" y="0" height="198"/></clipPath><clipPath id="7868ce5d68"><path d="M 412.363281 162 L 458.78125 162 L 458.78125 365.835938 L 412.363281 365.835938 Z M 412.363281 162 " clip-rule="nonzero"/></clipPath><clipPath id="1976fda8ab"><path d="M 458.773438 183.375 C 455.175781 348.300781 455.023438 349.199219 454.273438 351.375 C 453.523438 353.550781 452.324219 355.648438 450.898438 357.449219 C 449.476562 359.25 447.675781 360.898438 445.726562 362.175781 C 443.851562 363.375 441.601562 364.425781 439.351562 364.949219 C 437.175781 365.550781 434.699219 365.773438 432.449219 365.550781 C 430.125 365.398438 427.800781 364.875 425.625 363.976562 C 423.523438 363.074219 421.5 361.800781 419.773438 360.226562 C 418.050781 358.726562 416.476562 356.851562 415.351562 354.824219 C 414.226562 352.875 413.324219 350.550781 412.875 348.375 C 412.425781 346.125 412.351562 343.648438 412.648438 341.398438 C 412.949219 339.074219 413.625 336.75 414.675781 334.726562 C 415.648438 332.625 417.074219 330.675781 418.648438 329.023438 C 420.300781 327.375 422.25 325.949219 424.273438 324.898438 C 426.300781 323.851562 428.699219 323.101562 430.949219 322.800781 C 433.199219 322.5 435.675781 322.5 437.925781 322.949219 C 440.175781 323.324219 442.425781 324.148438 444.449219 325.273438 C 446.476562 326.398438 448.351562 327.898438 449.925781 329.625 C 451.5 331.273438 452.773438 333.375 453.75 335.476562 C 454.648438 337.574219 455.25 339.898438 455.476562 342.226562 C 455.625 344.476562 455.476562 346.949219 454.949219 349.125 C 454.425781 351.375 453.449219 353.625 452.25 355.574219 C 451.050781 357.523438 449.398438 359.324219 447.601562 360.824219 C 445.875 362.25 443.773438 363.449219 441.601562 364.273438 C 439.425781 365.101562 437.023438 365.550781 434.773438 365.625 C 432.449219 365.699219 430.050781 365.398438 427.875 364.726562 C 425.625 364.125 423.449219 363 421.574219 361.726562 C 419.699219 360.375 417.976562 358.648438 416.625 356.773438 C 415.273438 354.976562 414.148438 352.800781 413.476562 350.625 C 412.800781 348.375 412.648438 347.324219 412.5 343.726562 C 411.75 329.925781 414.976562 274.425781 415.800781 244.648438 C 416.398438 220.351562 415.199219 187.574219 417 178.273438 C 417.449219 175.726562 417.976562 174.976562 418.800781 173.476562 C 419.550781 171.976562 420.601562 170.550781 421.726562 169.273438 C 422.851562 168 424.125 166.875 425.550781 165.898438 C 426.898438 164.925781 428.476562 164.101562 430.050781 163.5 C 431.625 162.898438 433.351562 162.523438 435 162.300781 C 436.726562 162.074219 438.449219 162.074219 440.175781 162.300781 C 441.824219 162.523438 443.550781 162.898438 445.125 163.5 C 446.699219 164.101562 448.273438 164.925781 449.625 165.898438 C 451.050781 166.875 452.324219 168 453.449219 169.273438 C 454.574219 170.550781 455.550781 171.976562 456.375 173.476562 C 457.125 174.976562 457.800781 176.625 458.175781 178.273438 C 458.550781 179.925781 458.773438 183.375 458.773438 183.375 " clip-rule="nonzero"/></clipPath><clipPath id="9e0e0a7bb9"><path d="M 0.363281 0 L 46.78125 0 L 46.78125 203.835938 L 0.363281 203.835938 Z M 0.363281 0 " clip-rule="nonzero"/></clipPath><clipPath id="44c5aa0768"><path d="M 46.773438 21.375 C 43.175781 186.300781 43.023438 187.199219 42.273438 189.375 C 41.523438 191.550781 40.324219 193.648438 38.898438 195.449219 C 37.476562 197.25 35.675781 198.898438 33.726562 200.175781 C 31.851562 201.375 29.601562 202.425781 27.351562 202.949219 C 25.175781 203.550781 22.699219 203.773438 20.449219 203.550781 C 18.125 203.398438 15.800781 202.875 13.625 201.976562 C 11.523438 201.074219 9.5 199.800781 7.773438 198.226562 C 6.050781 196.726562 4.476562 194.851562 3.351562 192.824219 C 2.226562 190.875 1.324219 188.550781 0.875 186.375 C 0.425781 184.125 0.351562 181.648438 0.648438 179.398438 C 0.949219 177.074219 1.625 174.75 2.675781 172.726562 C 3.648438 170.625 5.074219 168.675781 6.648438 167.023438 C 8.300781 165.375 10.25 163.949219 12.273438 162.898438 C 14.300781 161.851562 16.699219 161.101562 18.949219 160.800781 C 21.199219 160.5 23.675781 160.5 25.925781 160.949219 C 28.175781 161.324219 30.425781 162.148438 32.449219 163.273438 C 34.476562 164.398438 36.351562 165.898438 37.925781 167.625 C 39.5 169.273438 40.773438 171.375 41.75 173.476562 C 42.648438 175.574219 43.25 177.898438 43.476562 180.226562 C 43.625 182.476562 43.476562 184.949219 42.949219 187.125 C 42.425781 189.375 41.449219 191.625 40.25 193.574219 C 39.050781 195.523438 37.398438 197.324219 35.601562 198.824219 C 33.875 200.25 31.773438 201.449219 29.601562 202.273438 C 27.425781 203.101562 25.023438 203.550781 22.773438 203.625 C 20.449219 203.699219 18.050781 203.398438 15.875 202.726562 C 13.625 202.125 11.449219 201 9.574219 199.726562 C 7.699219 198.375 5.976562 196.648438 4.625 194.773438 C 3.273438 192.976562 2.148438 190.800781 1.476562 188.625 C 0.800781 186.375 0.648438 185.324219 0.5 181.726562 C -0.25 167.925781 2.976562 112.425781 3.800781 82.648438 C 4.398438 58.351562 3.199219 25.574219 5 16.273438 C 5.449219 13.726562 5.976562 12.976562 6.800781 11.476562 C 7.550781 9.976562 8.601562 8.550781 9.726562 7.273438 C 10.851562 6 12.125 4.875 13.550781 3.898438 C 14.898438 2.925781 16.476562 2.101562 18.050781 1.5 C 19.625 0.898438 21.351562 0.523438 23 0.300781 C 24.726562 0.0742188 26.449219 0.0742188 28.175781 0.300781 C 29.824219 0.523438 31.550781 0.898438 33.125 1.5 C 34.699219 2.101562 36.273438 2.925781 37.625 3.898438 C 39.050781 4.875 40.324219 6 41.449219 7.273438 C 42.574219 8.550781 43.550781 9.976562 44.375 11.476562 C 45.125 12.976562 45.800781 14.625 46.175781 16.273438 C 46.550781 17.925781 46.773438 21.375 46.773438 21.375 " clip-rule="nonzero"/></clipPath><clipPath id="8369e585c1"><rect x="0" width="47" y="0" height="204"/></clipPath><clipPath id="de049af880"><path d="M 445.597656 245 L 606.550781 245 L 606.550781 379.902344 L 445.597656 379.902344 Z M 445.597656 245 " clip-rule="nonzero"/></clipPath><clipPath id="3e94d48c89"><path d="M 581.925781 285.449219 C 564.226562 295.273438 556.125 298.648438 548.25 300.675781 C 539.550781 302.925781 528.976562 303.148438 520.125 304.875 C 512.101562 306.523438 503.773438 312.449219 497.324219 310.648438 C 490.875 308.773438 480.148438 296.101562 481.351562 293.851562 C 482.625 291.449219 497.699219 295.125 508.199219 298.351562 C 524.851562 303.449219 553.648438 319.949219 569.851562 326.625 C 580.199219 330.898438 590.25 332.925781 595.574219 336.148438 C 598.351562 337.800781 599.699219 339.226562 601.273438 341.25 C 602.851562 343.199219 604.125 345.523438 605.023438 347.851562 C 605.851562 350.25 606.375 352.875 606.449219 355.351562 C 606.523438 357.898438 606.148438 360.523438 605.398438 362.925781 C 604.648438 365.324219 603.523438 367.726562 602.023438 369.824219 C 600.601562 371.851562 598.648438 373.726562 596.625 375.226562 C 594.601562 376.648438 592.199219 377.851562 589.800781 378.601562 C 587.398438 379.351562 584.699219 379.726562 582.226562 379.648438 C 579.675781 379.574219 577.050781 379.050781 574.726562 378.226562 C 572.324219 377.324219 570 375.976562 568.050781 374.398438 C 566.101562 372.824219 564.300781 370.875 562.949219 368.773438 C 561.601562 366.601562 560.550781 364.125 559.949219 361.726562 C 559.351562 359.25 559.125 356.625 559.273438 354.074219 C 559.5 351.601562 560.175781 348.976562 561.148438 346.726562 C 562.125 344.398438 563.625 342.148438 565.273438 340.273438 C 566.925781 338.398438 569.023438 336.675781 571.199219 335.476562 C 573.375 334.199219 575.925781 333.300781 578.398438 332.851562 C 580.875 332.324219 583.574219 332.25 586.050781 332.625 C 588.523438 332.925781 591.074219 333.75 593.324219 334.875 C 595.574219 336 597.75 337.574219 599.550781 339.300781 C 601.351562 341.101562 602.851562 343.273438 603.976562 345.523438 C 605.101562 347.773438 605.925781 350.324219 606.226562 352.800781 C 606.601562 355.351562 606.523438 357.976562 606.074219 360.449219 C 605.550781 362.925781 604.648438 365.476562 603.375 367.648438 C 602.175781 369.824219 600.523438 371.925781 598.648438 373.574219 C 596.773438 375.300781 594.449219 376.726562 592.199219 377.699219 C 589.875 378.675781 587.25 379.351562 584.773438 379.574219 C 582.226562 379.726562 580.125 379.574219 577.125 378.976562 C 572.476562 378 567.375 376.050781 559.800781 373.050781 C 544.574219 367.050781 510.074219 350.023438 492.601562 342.601562 C 481.5 337.875 472.949219 336.074219 465.148438 331.648438 C 458.476562 327.824219 450.898438 324.898438 448.050781 318.449219 C 444.449219 310.273438 445.648438 292.199219 450.976562 284.023438 C 455.851562 276.523438 468 273.601562 476.851562 269.925781 C 485.324219 266.476562 494.550781 264.074219 502.800781 262.273438 C 510.074219 260.699219 516.449219 260.699219 523.648438 259.5 C 531.523438 258.226562 541.050781 257.324219 548.25 254.773438 C 554.476562 252.523438 560.699219 247.273438 564.75 245.925781 C 566.851562 245.175781 568.125 245.101562 569.925781 245.023438 C 571.648438 244.949219 573.375 245.101562 575.101562 245.398438 C 576.824219 245.773438 578.476562 246.300781 580.050781 247.050781 C 581.625 247.800781 583.199219 248.699219 584.550781 249.824219 C 585.898438 250.875 587.101562 252.148438 588.148438 253.574219 C 589.199219 254.925781 590.175781 256.5 590.851562 258.074219 C 591.523438 259.648438 592.050781 261.375 592.351562 263.101562 C 592.648438 264.75 592.726562 266.550781 592.574219 268.273438 C 592.425781 270 592.125 271.800781 591.601562 273.449219 C 591.074219 275.101562 590.25 276.675781 589.351562 278.175781 C 588.449219 279.601562 587.324219 281.023438 586.125 282.226562 C 584.851562 283.425781 581.925781 285.449219 581.925781 285.449219 " clip-rule="nonzero"/></clipPath><clipPath id="9ef73d53ea"><path d="M 0.597656 0 L 161.550781 0 L 161.550781 134.902344 L 0.597656 134.902344 Z M 0.597656 0 " clip-rule="nonzero"/></clipPath><clipPath id="4c0584dee4"><path d="M 136.925781 40.449219 C 119.226562 50.273438 111.125 53.648438 103.25 55.675781 C 94.550781 57.925781 83.976562 58.148438 75.125 59.875 C 67.101562 61.523438 58.773438 67.449219 52.324219 65.648438 C 45.875 63.773438 35.148438 51.101562 36.351562 48.851562 C 37.625 46.449219 52.699219 50.125 63.199219 53.351562 C 79.851562 58.449219 108.648438 74.949219 124.851562 81.625 C 135.199219 85.898438 145.25 87.925781 150.574219 91.148438 C 153.351562 92.800781 154.699219 94.226562 156.273438 96.25 C 157.851562 98.199219 159.125 100.523438 160.023438 102.851562 C 160.851562 105.25 161.375 107.875 161.449219 110.351562 C 161.523438 112.898438 161.148438 115.523438 160.398438 117.925781 C 159.648438 120.324219 158.523438 122.726562 157.023438 124.824219 C 155.601562 126.851562 153.648438 128.726562 151.625 130.226562 C 149.601562 131.648438 147.199219 132.851562 144.800781 133.601562 C 142.398438 134.351562 139.699219 134.726562 137.226562 134.648438 C 134.675781 134.574219 132.050781 134.050781 129.726562 133.226562 C 127.324219 132.324219 125 130.976562 123.050781 129.398438 C 121.101562 127.824219 119.300781 125.875 117.949219 123.773438 C 116.601562 121.601562 115.550781 119.125 114.949219 116.726562 C 114.351562 114.25 114.125 111.625 114.273438 109.074219 C 114.5 106.601562 115.175781 103.976562 116.148438 101.726562 C 117.125 99.398438 118.625 97.148438 120.273438 95.273438 C 121.925781 93.398438 124.023438 91.675781 126.199219 90.476562 C 128.375 89.199219 130.925781 88.300781 133.398438 87.851562 C 135.875 87.324219 138.574219 87.25 141.050781 87.625 C 143.523438 87.925781 146.074219 88.75 148.324219 89.875 C 150.574219 91 152.75 92.574219 154.550781 94.300781 C 156.351562 96.101562 157.851562 98.273438 158.976562 100.523438 C 160.101562 102.773438 160.925781 105.324219 161.226562 107.800781 C 161.601562 110.351562 161.523438 112.976562 161.074219 115.449219 C 160.550781 117.925781 159.648438 120.476562 158.375 122.648438 C 157.175781 124.824219 155.523438 126.925781 153.648438 128.574219 C 151.773438 130.300781 149.449219 131.726562 147.199219 132.699219 C 144.875 133.675781 142.25 134.351562 139.773438 134.574219 C 137.226562 134.726562 135.125 134.574219 132.125 133.976562 C 127.476562 133 122.375 131.050781 114.800781 128.050781 C 99.574219 122.050781 65.074219 105.023438 47.601562 97.601562 C 36.5 92.875 27.949219 91.074219 20.148438 86.648438 C 13.476562 82.824219 5.898438 79.898438 3.050781 73.449219 C -0.550781 65.273438 0.648438 47.199219 5.976562 39.023438 C 10.851562 31.523438 23 28.601562 31.851562 24.925781 C 40.324219 21.476562 49.550781 19.074219 57.800781 17.273438 C 65.074219 15.699219 71.449219 15.699219 78.648438 14.5 C 86.523438 13.226562 96.050781 12.324219 103.25 9.773438 C 109.476562 7.523438 115.699219 2.273438 119.75 0.925781 C 121.851562 0.175781 123.125 0.101562 124.925781 0.0234375 C 126.648438 -0.0507812 128.375 0.101562 130.101562 0.398438 C 131.824219 0.773438 133.476562 1.300781 135.050781 2.050781 C 136.625 2.800781 138.199219 3.699219 139.550781 4.824219 C 140.898438 5.875 142.101562 7.148438 143.148438 8.574219 C 144.199219 9.925781 145.175781 11.5 145.851562 13.074219 C 146.523438 14.648438 147.050781 16.375 147.351562 18.101562 C 147.648438 19.75 147.726562 21.550781 147.574219 23.273438 C 147.425781 25 147.125 26.800781 146.601562 28.449219 C 146.074219 30.101562 145.25 31.675781 144.351562 33.175781 C 143.449219 34.601562 142.324219 36.023438 141.125 37.226562 C 139.851562 38.425781 136.925781 40.449219 136.925781 40.449219 " clip-rule="nonzero"/></clipPath><clipPath id="85f5044f70"><rect x="0" width="162" y="0" height="135"/></clipPath><clipPath id="2a430b05ec"><path d="M 12.558594 429 L 176.160156 429 L 176.160156 594.480469 L 12.558594 594.480469 Z M 12.558594 429 " clip-rule="nonzero"/></clipPath><clipPath id="c216ceb604"><path d="M 171.898438 474.449219 C 177.375 524.851562 176.476562 534.148438 175.125 542.925781 C 173.851562 550.648438 170.851562 558.898438 169.800781 564.601562 C 169.125 568.199219 169.351562 570.976562 168.675781 573.523438 C 168.226562 575.476562 167.550781 577.050781 166.648438 578.699219 C 165.75 580.273438 164.625 581.851562 163.351562 583.199219 C 162.148438 584.550781 160.648438 585.824219 159.148438 586.800781 C 157.574219 587.851562 155.851562 588.675781 154.125 589.273438 C 152.398438 589.949219 150.523438 590.324219 148.726562 590.550781 C 146.851562 590.699219 144.976562 590.699219 143.101562 590.398438 C 141.300781 590.175781 139.5 589.648438 137.773438 588.976562 C 136.050781 588.300781 134.398438 587.398438 132.898438 586.273438 C 131.398438 585.226562 129.976562 583.949219 128.773438 582.523438 C 127.574219 581.101562 126.523438 579.523438 125.699219 577.875 C 124.875 576.226562 124.425781 575.175781 123.824219 572.625 C 122.398438 566.625 121.125 552.75 119.851562 541.425781 C 118.273438 527.851562 120.375 507.449219 115.351562 496.726562 C 111.75 488.925781 105.523438 483 98.851562 479.851562 C 92.101562 476.699219 80.851562 474.898438 74.925781 478.125 C 68.925781 481.351562 65.25 492 63.148438 499.425781 C 61.199219 506.550781 60 514.949219 62.25 521.699219 C 64.574219 528.75 70.648438 536.699219 77.476562 540.75 C 84.75 545.101562 99.148438 543.601562 105.300781 545.699219 C 108.523438 546.898438 110.25 547.949219 112.351562 549.601562 C 114.375 551.25 116.324219 553.273438 117.75 555.523438 C 119.25 557.699219 120.375 560.25 121.050781 562.800781 C 121.726562 565.351562 121.949219 568.199219 121.800781 570.824219 C 121.648438 573.449219 120.976562 576.226562 120 578.625 C 118.949219 581.101562 117.449219 583.5 115.726562 585.449219 C 114 587.476562 111.824219 589.273438 109.574219 590.550781 C 107.25 591.898438 104.625 592.949219 102.074219 593.476562 C 99.449219 594 96.675781 594.074219 94.050781 593.773438 C 91.425781 593.476562 88.726562 592.648438 86.324219 591.523438 C 83.925781 590.398438 81.601562 588.824219 79.726562 586.949219 C 77.851562 585.074219 76.199219 582.824219 75 580.5 C 73.726562 578.175781 72.898438 575.476562 72.523438 572.851562 C 72.074219 570.226562 72.148438 567.449219 72.601562 564.824219 C 73.050781 562.199219 74.023438 559.574219 75.300781 557.25 C 76.5 554.925781 78.300781 552.675781 80.175781 550.875 C 82.125 549.148438 84.523438 547.574219 86.925781 546.523438 C 89.324219 545.398438 92.023438 544.726562 94.648438 544.425781 C 97.273438 544.199219 100.125 544.351562 102.675781 544.949219 C 105.300781 545.550781 107.851562 546.675781 110.101562 548.023438 C 112.351562 549.449219 114.449219 551.324219 116.175781 553.351562 C 117.824219 555.375 119.25 557.773438 120.226562 560.25 C 121.199219 562.726562 121.726562 565.5 121.875 568.125 C 121.949219 570.75 121.574219 573.601562 120.898438 576.074219 C 120.148438 578.625 118.875 581.175781 117.375 583.351562 C 115.875 585.523438 113.925781 587.550781 111.824219 589.125 C 109.648438 590.699219 107.175781 591.976562 104.625 592.800781 C 102.148438 593.550781 100.050781 593.851562 96.75 594 C 91.351562 594.148438 82.800781 594.148438 75.375 592.273438 C 66.523438 590.101562 55.5 585.300781 47.550781 580.199219 C 40.351562 575.550781 34.425781 570.148438 29.101562 563.476562 C 23.398438 556.199219 17.773438 546.300781 15.148438 537.898438 C 12.824219 530.550781 12.898438 523.648438 12.898438 516.226562 C 12.824219 508.351562 13.351562 500.25 15.074219 491.773438 C 17.101562 482.023438 20.25 469.949219 24.898438 461.175781 C 29.023438 453.375 34.273438 446.101562 40.574219 441.148438 C 46.5 436.5 54.074219 433.648438 61.199219 431.625 C 68.175781 429.75 75.449219 429.300781 82.800781 429.226562 C 90.449219 429.148438 98.625 429.523438 106.199219 431.476562 C 114 433.425781 122.101562 436.800781 129 441.148438 C 136.050781 445.5 142.800781 451.351562 148.050781 457.574219 C 153.148438 463.5 156.976562 467.925781 160.125 477.449219 C 166.5 496.273438 169.726562 556.050781 169.5 567.976562 C 169.425781 570.976562 169.199219 571.726562 168.675781 573.523438 C 168.226562 575.324219 167.550781 577.050781 166.648438 578.699219 C 165.75 580.273438 164.625 581.851562 163.351562 583.199219 C 162.148438 584.550781 160.648438 585.824219 159.148438 586.800781 C 157.574219 587.851562 155.851562 588.675781 154.125 589.273438 C 152.398438 589.949219 150.523438 590.324219 148.726562 590.550781 C 146.851562 590.699219 144.976562 590.699219 143.101562 590.398438 C 141.300781 590.175781 139.5 589.648438 137.773438 588.976562 C 136.050781 588.300781 134.398438 587.398438 132.898438 586.273438 C 131.398438 585.226562 129.976562 583.949219 128.773438 582.523438 C 127.574219 581.101562 126.523438 579.523438 125.699219 577.875 C 124.875 576.226562 124.199219 574.425781 123.824219 572.625 C 123.449219 570.824219 123.148438 569.851562 123.300781 567.074219 C 123.675781 558.898438 132.375 534.226562 133.273438 518.398438 C 134.101562 503.699219 128.773438 482.625 129.226562 475.351562 C 129.449219 472.800781 129.824219 471.898438 130.425781 470.25 C 130.949219 468.675781 131.773438 467.101562 132.675781 465.675781 C 133.648438 464.25 134.773438 462.898438 136.050781 461.699219 C 137.324219 460.574219 138.75 459.523438 140.25 458.699219 C 141.75 457.875 143.398438 457.199219 145.050781 456.75 C 146.699219 456.300781 148.425781 456.074219 150.148438 456 C 151.875 456 153.675781 456.148438 155.324219 456.523438 C 156.976562 456.898438 158.699219 457.5 160.199219 458.25 C 161.699219 459 163.199219 459.976562 164.550781 461.101562 C 165.824219 462.226562 167.023438 463.5 168 464.925781 C 169.050781 466.273438 169.875 467.851562 170.550781 469.425781 C 171.148438 471 171.898438 474.449219 171.898438 474.449219 " clip-rule="nonzero"/></clipPath><clipPath id="6b77806a62"><path d="M 0.71875 0.121094 L 164.160156 0.121094 L 164.160156 165.238281 L 0.71875 165.238281 Z M 0.71875 0.121094 " clip-rule="nonzero"/></clipPath><clipPath id="25c0b89dcc"><path d="M 159.898438 45.449219 C 165.375 95.851562 164.476562 105.148438 163.125 113.925781 C 161.851562 121.648438 158.851562 129.898438 157.800781 135.601562 C 157.125 139.199219 157.351562 141.976562 156.675781 144.523438 C 156.226562 146.476562 155.550781 148.050781 154.648438 149.699219 C 153.75 151.273438 152.625 152.851562 151.351562 154.199219 C 150.148438 155.550781 148.648438 156.824219 147.148438 157.800781 C 145.574219 158.851562 143.851562 159.675781 142.125 160.273438 C 140.398438 160.949219 138.523438 161.324219 136.726562 161.550781 C 134.851562 161.699219 132.976562 161.699219 131.101562 161.398438 C 129.300781 161.175781 127.5 160.648438 125.773438 159.976562 C 124.050781 159.300781 122.398438 158.398438 120.898438 157.273438 C 119.398438 156.226562 117.976562 154.949219 116.773438 153.523438 C 115.574219 152.101562 114.523438 150.523438 113.699219 148.875 C 112.875 147.226562 112.425781 146.175781 111.824219 143.625 C 110.398438 137.625 109.125 123.75 107.851562 112.425781 C 106.273438 98.851562 108.375 78.449219 103.351562 67.726562 C 99.75 59.925781 93.523438 54 86.851562 50.851562 C 80.101562 47.699219 68.851562 45.898438 62.925781 49.125 C 56.925781 52.351562 53.25 63 51.148438 70.425781 C 49.199219 77.550781 48 85.949219 50.25 92.699219 C 52.574219 99.75 58.648438 107.699219 65.476562 111.75 C 72.75 116.101562 87.148438 114.601562 93.300781 116.699219 C 96.523438 117.898438 98.25 118.949219 100.351562 120.601562 C 102.375 122.25 104.324219 124.273438 105.75 126.523438 C 107.25 128.699219 108.375 131.25 109.050781 133.800781 C 109.726562 136.351562 109.949219 139.199219 109.800781 141.824219 C 109.648438 144.449219 108.976562 147.226562 108 149.625 C 106.949219 152.101562 105.449219 154.5 103.726562 156.449219 C 102 158.476562 99.824219 160.273438 97.574219 161.550781 C 95.25 162.898438 92.625 163.949219 90.074219 164.476562 C 87.449219 165 84.675781 165.074219 82.050781 164.773438 C 79.425781 164.476562 76.726562 163.648438 74.324219 162.523438 C 71.925781 161.398438 69.601562 159.824219 67.726562 157.949219 C 65.851562 156.074219 64.199219 153.824219 63 151.5 C 61.726562 149.175781 60.898438 146.476562 60.523438 143.851562 C 60.074219 141.226562 60.148438 138.449219 60.601562 135.824219 C 61.050781 133.199219 62.023438 130.574219 63.300781 128.25 C 64.5 125.925781 66.300781 123.675781 68.175781 121.875 C 70.125 120.148438 72.523438 118.574219 74.925781 117.523438 C 77.324219 116.398438 80.023438 115.726562 82.648438 115.425781 C 85.273438 115.199219 88.125 115.351562 90.675781 115.949219 C 93.300781 116.550781 95.851562 117.675781 98.101562 119.023438 C 100.351562 120.449219 102.449219 122.324219 104.175781 124.351562 C 105.824219 126.375 107.25 128.773438 108.226562 131.25 C 109.199219 133.726562 109.726562 136.5 109.875 139.125 C 109.949219 141.75 109.574219 144.601562 108.898438 147.074219 C 108.148438 149.625 106.875 152.175781 105.375 154.351562 C 103.875 156.523438 101.925781 158.550781 99.824219 160.125 C 97.648438 161.699219 95.175781 162.976562 92.625 163.800781 C 90.148438 164.550781 88.050781 164.851562 84.75 165 C 79.351562 165.148438 70.800781 165.148438 63.375 163.273438 C 54.523438 161.101562 43.5 156.300781 35.550781 151.199219 C 28.351562 146.550781 22.425781 141.148438 17.101562 134.476562 C 11.398438 127.199219 5.773438 117.300781 3.148438 108.898438 C 0.824219 101.550781 0.898438 94.648438 0.898438 87.226562 C 0.824219 79.351562 1.351562 71.25 3.074219 62.773438 C 5.101562 53.023438 8.25 40.949219 12.898438 32.175781 C 17.023438 24.375 22.273438 17.101562 28.574219 12.148438 C 34.5 7.5 42.074219 4.648438 49.199219 2.625 C 56.175781 0.75 63.449219 0.300781 70.800781 0.226562 C 78.449219 0.148438 86.625 0.523438 94.199219 2.476562 C 102 4.425781 110.101562 7.800781 117 12.148438 C 124.050781 16.5 130.800781 22.351562 136.050781 28.574219 C 141.148438 34.5 144.976562 38.925781 148.125 48.449219 C 154.5 67.273438 157.726562 127.050781 157.5 138.976562 C 157.425781 141.976562 157.199219 142.726562 156.675781 144.523438 C 156.226562 146.324219 155.550781 148.050781 154.648438 149.699219 C 153.75 151.273438 152.625 152.851562 151.351562 154.199219 C 150.148438 155.550781 148.648438 156.824219 147.148438 157.800781 C 145.574219 158.851562 143.851562 159.675781 142.125 160.273438 C 140.398438 160.949219 138.523438 161.324219 136.726562 161.550781 C 134.851562 161.699219 132.976562 161.699219 131.101562 161.398438 C 129.300781 161.175781 127.5 160.648438 125.773438 159.976562 C 124.050781 159.300781 122.398438 158.398438 120.898438 157.273438 C 119.398438 156.226562 117.976562 154.949219 116.773438 153.523438 C 115.574219 152.101562 114.523438 150.523438 113.699219 148.875 C 112.875 147.226562 112.199219 145.425781 111.824219 143.625 C 111.449219 141.824219 111.148438 140.851562 111.300781 138.074219 C 111.675781 129.898438 120.375 105.226562 121.273438 89.398438 C 122.101562 74.699219 116.773438 53.625 117.226562 46.351562 C 117.449219 43.800781 117.824219 42.898438 118.425781 41.25 C 118.949219 39.675781 119.773438 38.101562 120.675781 36.675781 C 121.648438 35.25 122.773438 33.898438 124.050781 32.699219 C 125.324219 31.574219 126.75 30.523438 128.25 29.699219 C 129.75 28.875 131.398438 28.199219 133.050781 27.75 C 134.699219 27.300781 136.425781 27.074219 138.148438 27 C 139.875 27 141.675781 27.148438 143.324219 27.523438 C 144.976562 27.898438 146.699219 28.5 148.199219 29.25 C 149.699219 30 151.199219 30.976562 152.550781 32.101562 C 153.824219 33.226562 155.023438 34.5 156 35.925781 C 157.050781 37.273438 157.875 38.851562 158.550781 40.425781 C 159.148438 42 159.898438 45.449219 159.898438 45.449219 " clip-rule="nonzero"/></clipPath><clipPath id="c2439faf28"><rect x="0" width="165" y="0" height="166"/></clipPath><clipPath id="168c73c3b7"><path d="M 177.085938 440.1875 L 341.082031 440.1875 L 341.082031 589.714844 L 177.085938 589.714844 Z M 177.085938 440.1875 " clip-rule="nonzero"/></clipPath><clipPath id="c5655e5d14"><path d="M 304.351562 481.800781 C 306 507.601562 306.148438 516.300781 305.324219 526.425781 C 304.273438 540 300.675781 565.949219 298.351562 573.523438 C 297.601562 576.074219 297 576.976562 296.101562 578.476562 C 295.125 579.976562 293.925781 581.476562 292.648438 582.75 C 291.375 583.949219 289.875 585.074219 288.375 586.050781 C 286.800781 586.949219 285.074219 587.699219 283.351562 588.226562 C 281.625 588.675781 279.75 589.050781 277.949219 589.125 C 276.148438 589.199219 274.273438 589.050781 272.550781 588.675781 C 270.75 588.375 269.023438 587.773438 267.375 587.023438 C 265.726562 586.273438 264.148438 585.300781 262.726562 584.175781 C 261.300781 582.976562 260.023438 581.699219 258.976562 580.199219 C 257.851562 578.773438 256.875 577.199219 256.199219 575.550781 C 255.449219 573.898438 254.925781 572.101562 254.625 570.300781 C 254.324219 568.574219 254.324219 567.375 254.398438 564.898438 C 254.476562 559.199219 257.398438 546 257.023438 537.300781 C 256.648438 529.273438 256.351562 521.175781 252.75 514.351562 C 248.851562 506.851562 240.449219 499.425781 233.25 494.773438 C 226.648438 490.574219 212.398438 485.773438 211.800781 486.898438 C 211.125 488.175781 227.851562 499.273438 234.824219 505.050781 C 240.75 510 244.425781 515.851562 251.023438 519.148438 C 258.601562 522.976562 268.351562 523.949219 278.476562 525.226562 C 290.625 526.726562 311.101562 525.523438 319.125 526.351562 C 322.5 526.726562 324 526.949219 326.25 527.773438 C 328.5 528.601562 330.75 529.800781 332.625 531.300781 C 334.5 532.800781 336.226562 534.75 337.5 536.773438 C 338.773438 538.800781 339.824219 541.125 340.351562 543.449219 C 340.949219 545.773438 341.175781 548.324219 340.949219 550.726562 C 340.800781 553.125 340.199219 555.601562 339.226562 557.773438 C 338.25 560.023438 336.898438 562.125 335.324219 563.925781 C 333.675781 565.726562 331.726562 567.300781 329.625 568.5 C 327.523438 569.699219 325.125 570.601562 322.800781 571.050781 C 320.398438 571.5 317.851562 571.574219 315.523438 571.273438 C 313.125 570.898438 310.648438 570.148438 308.550781 569.101562 C 306.375 568.050781 304.273438 566.550781 302.625 564.898438 C 300.898438 563.175781 299.398438 561.074219 298.351562 558.976562 C 297.226562 556.800781 296.476562 554.324219 296.175781 552 C 295.875 549.601562 295.949219 547.050781 296.398438 544.726562 C 296.851562 542.324219 297.675781 539.925781 298.875 537.824219 C 300.074219 535.726562 301.648438 533.773438 303.449219 532.125 C 305.25 530.550781 307.351562 529.199219 309.601562 528.226562 C 311.773438 527.25 314.25 526.648438 316.648438 526.425781 C 319.050781 526.273438 321.601562 526.425781 323.925781 527.023438 C 326.25 527.625 328.574219 528.601562 330.601562 529.875 C 332.625 531.226562 334.574219 532.875 336.074219 534.75 C 337.574219 536.625 338.851562 538.875 339.675781 541.125 C 340.5 543.375 340.949219 545.851562 341.023438 548.25 C 341.101562 550.648438 340.800781 553.199219 340.050781 555.523438 C 339.375 557.773438 338.25 560.101562 336.824219 562.050781 C 335.398438 564 333.601562 565.800781 331.648438 567.226562 C 329.699219 568.574219 327.449219 569.773438 325.125 570.449219 C 322.875 571.125 321.375 571.273438 317.925781 571.425781 C 309.226562 571.875 284.851562 571.273438 271.5 569.925781 C 261.300781 568.949219 254.023438 568.800781 244.726562 565.5 C 233.25 561.375 218.625 553.726562 208.648438 544.574219 C 198.601562 535.425781 189.675781 523.050781 184.5 510.675781 C 179.398438 498.375 176.101562 481.273438 177.675781 470.550781 C 178.800781 462.675781 181.726562 456.074219 187.273438 451.199219 C 194.324219 445.199219 209.023438 440.851562 219.824219 440.773438 C 230.398438 440.773438 242.398438 446.398438 251.476562 450.898438 C 259.199219 454.726562 265.425781 459.675781 271.425781 464.925781 C 277.199219 470.101562 282.300781 475.199219 287.023438 482.023438 C 292.574219 490.199219 299.101562 501.074219 301.648438 511.273438 C 304.125 521.25 303 532.800781 302.550781 542.699219 C 302.101562 551.625 300.300781 562.875 299.398438 568.199219 C 299.023438 570.675781 298.949219 571.800781 298.351562 573.523438 C 297.824219 575.25 297 576.976562 296.101562 578.476562 C 295.125 579.976562 293.925781 581.476562 292.648438 582.75 C 291.375 583.949219 289.875 585.074219 288.375 586.050781 C 286.800781 586.949219 285.074219 587.699219 283.351562 588.226562 C 281.625 588.675781 279.75 589.050781 277.949219 589.125 C 276.148438 589.199219 274.351562 589.050781 272.550781 588.675781 C 270.75 588.375 269.023438 587.773438 267.375 587.023438 C 265.726562 586.273438 264.148438 585.300781 262.726562 584.175781 C 261.375 582.976562 260.023438 581.699219 258.976562 580.273438 C 257.851562 578.773438 256.875 577.199219 256.199219 575.550781 C 255.449219 573.898438 254.925781 572.101562 254.625 570.300781 C 254.324219 568.574219 254.324219 567 254.398438 564.898438 C 254.476562 561.75 255.074219 557.699219 255.824219 553.199219 C 256.875 546.75 259.5 538.050781 260.625 529.949219 C 261.824219 521.324219 262.574219 510.976562 262.574219 502.875 C 262.574219 496.351562 261.300781 489.226562 261.226562 485.101562 C 261.226562 482.851562 261.148438 481.574219 261.449219 479.851562 C 261.75 478.199219 262.273438 476.476562 262.949219 474.898438 C 263.625 473.324219 264.523438 471.75 265.574219 470.398438 C 266.625 468.976562 267.824219 467.699219 269.175781 466.648438 C 270.523438 465.523438 272.023438 464.625 273.601562 463.875 C 275.175781 463.125 276.824219 462.601562 278.550781 462.226562 C 280.273438 461.925781 282 461.773438 283.726562 461.851562 C 285.449219 461.925781 287.25 462.226562 288.898438 462.675781 C 290.550781 463.199219 292.199219 463.875 293.699219 464.773438 C 295.125 465.601562 296.550781 466.726562 297.824219 467.925781 C 299.023438 469.125 300.148438 470.476562 301.125 471.976562 C 302.023438 473.398438 302.773438 475.050781 303.300781 476.625 C 303.824219 478.273438 304.351562 481.800781 304.351562 481.800781 " clip-rule="nonzero"/></clipPath><clipPath id="a32ecc38d4"><path d="M 0.0859375 0.640625 L 164.082031 0.640625 L 164.082031 149.199219 L 0.0859375 149.199219 Z M 0.0859375 0.640625 " clip-rule="nonzero"/></clipPath><clipPath id="3fafe0e7d4"><path d="M 127.351562 41.800781 C 129 67.601562 129.148438 76.300781 128.324219 86.425781 C 127.273438 100 123.675781 125.949219 121.351562 133.523438 C 120.601562 136.074219 120 136.976562 119.101562 138.476562 C 118.125 139.976562 116.925781 141.476562 115.648438 142.75 C 114.375 143.949219 112.875 145.074219 111.375 146.050781 C 109.800781 146.949219 108.074219 147.699219 106.351562 148.226562 C 104.625 148.675781 102.75 149.050781 100.949219 149.125 C 99.148438 149.199219 97.273438 149.050781 95.550781 148.675781 C 93.75 148.375 92.023438 147.773438 90.375 147.023438 C 88.726562 146.273438 87.148438 145.300781 85.726562 144.175781 C 84.300781 142.976562 83.023438 141.699219 81.976562 140.199219 C 80.851562 138.773438 79.875 137.199219 79.199219 135.550781 C 78.449219 133.898438 77.925781 132.101562 77.625 130.300781 C 77.324219 128.574219 77.324219 127.375 77.398438 124.898438 C 77.476562 119.199219 80.398438 106 80.023438 97.300781 C 79.648438 89.273438 79.351562 81.175781 75.75 74.351562 C 71.851562 66.851562 63.449219 59.425781 56.25 54.773438 C 49.648438 50.574219 35.398438 45.773438 34.800781 46.898438 C 34.125 48.175781 50.851562 59.273438 57.824219 65.050781 C 63.75 70 67.425781 75.851562 74.023438 79.148438 C 81.601562 82.976562 91.351562 83.949219 101.476562 85.226562 C 113.625 86.726562 134.101562 85.523438 142.125 86.351562 C 145.5 86.726562 147 86.949219 149.25 87.773438 C 151.5 88.601562 153.75 89.800781 155.625 91.300781 C 157.5 92.800781 159.226562 94.75 160.5 96.773438 C 161.773438 98.800781 162.824219 101.125 163.351562 103.449219 C 163.949219 105.773438 164.175781 108.324219 163.949219 110.726562 C 163.800781 113.125 163.199219 115.601562 162.226562 117.773438 C 161.25 120.023438 159.898438 122.125 158.324219 123.925781 C 156.675781 125.726562 154.726562 127.300781 152.625 128.5 C 150.523438 129.699219 148.125 130.601562 145.800781 131.050781 C 143.398438 131.5 140.851562 131.574219 138.523438 131.273438 C 136.125 130.898438 133.648438 130.148438 131.550781 129.101562 C 129.375 128.050781 127.273438 126.550781 125.625 124.898438 C 123.898438 123.175781 122.398438 121.074219 121.351562 118.976562 C 120.226562 116.800781 119.476562 114.324219 119.175781 112 C 118.875 109.601562 118.949219 107.050781 119.398438 104.726562 C 119.851562 102.324219 120.675781 99.925781 121.875 97.824219 C 123.074219 95.726562 124.648438 93.773438 126.449219 92.125 C 128.25 90.550781 130.351562 89.199219 132.601562 88.226562 C 134.773438 87.25 137.25 86.648438 139.648438 86.425781 C 142.050781 86.273438 144.601562 86.425781 146.925781 87.023438 C 149.25 87.625 151.574219 88.601562 153.601562 89.875 C 155.625 91.226562 157.574219 92.875 159.074219 94.75 C 160.574219 96.625 161.851562 98.875 162.675781 101.125 C 163.5 103.375 163.949219 105.851562 164.023438 108.25 C 164.101562 110.648438 163.800781 113.199219 163.050781 115.523438 C 162.375 117.773438 161.25 120.101562 159.824219 122.050781 C 158.398438 124 156.601562 125.800781 154.648438 127.226562 C 152.699219 128.574219 150.449219 129.773438 148.125 130.449219 C 145.875 131.125 144.375 131.273438 140.925781 131.425781 C 132.226562 131.875 107.851562 131.273438 94.5 129.925781 C 84.300781 128.949219 77.023438 128.800781 67.726562 125.5 C 56.25 121.375 41.625 113.726562 31.648438 104.574219 C 21.601562 95.425781 12.675781 83.050781 7.5 70.675781 C 2.398438 58.375 -0.898438 41.273438 0.675781 30.550781 C 1.800781 22.675781 4.726562 16.074219 10.273438 11.199219 C 17.324219 5.199219 32.023438 0.851562 42.824219 0.773438 C 53.398438 0.773438 65.398438 6.398438 74.476562 10.898438 C 82.199219 14.726562 88.425781 19.675781 94.425781 24.925781 C 100.199219 30.101562 105.300781 35.199219 110.023438 42.023438 C 115.574219 50.199219 122.101562 61.074219 124.648438 71.273438 C 127.125 81.25 126 92.800781 125.550781 102.699219 C 125.101562 111.625 123.300781 122.875 122.398438 128.199219 C 122.023438 130.675781 121.949219 131.800781 121.351562 133.523438 C 120.824219 135.25 120 136.976562 119.101562 138.476562 C 118.125 139.976562 116.925781 141.476562 115.648438 142.75 C 114.375 143.949219 112.875 145.074219 111.375 146.050781 C 109.800781 146.949219 108.074219 147.699219 106.351562 148.226562 C 104.625 148.675781 102.75 149.050781 100.949219 149.125 C 99.148438 149.199219 97.351562 149.050781 95.550781 148.675781 C 93.75 148.375 92.023438 147.773438 90.375 147.023438 C 88.726562 146.273438 87.148438 145.300781 85.726562 144.175781 C 84.375 142.976562 83.023438 141.699219 81.976562 140.273438 C 80.851562 138.773438 79.875 137.199219 79.199219 135.550781 C 78.449219 133.898438 77.925781 132.101562 77.625 130.300781 C 77.324219 128.574219 77.324219 127 77.398438 124.898438 C 77.476562 121.75 78.074219 117.699219 78.824219 113.199219 C 79.875 106.75 82.5 98.050781 83.625 89.949219 C 84.824219 81.324219 85.574219 70.976562 85.574219 62.875 C 85.574219 56.351562 84.300781 49.226562 84.226562 45.101562 C 84.226562 42.851562 84.148438 41.574219 84.449219 39.851562 C 84.75 38.199219 85.273438 36.476562 85.949219 34.898438 C 86.625 33.324219 87.523438 31.75 88.574219 30.398438 C 89.625 28.976562 90.824219 27.699219 92.175781 26.648438 C 93.523438 25.523438 95.023438 24.625 96.601562 23.875 C 98.175781 23.125 99.824219 22.601562 101.550781 22.226562 C 103.273438 21.925781 105 21.773438 106.726562 21.851562 C 108.449219 21.925781 110.25 22.226562 111.898438 22.675781 C 113.550781 23.199219 115.199219 23.875 116.699219 24.773438 C 118.125 25.601562 119.550781 26.726562 120.824219 27.925781 C 122.023438 29.125 123.148438 30.476562 124.125 31.976562 C 125.023438 33.398438 125.773438 35.050781 126.300781 36.625 C 126.824219 38.273438 127.351562 41.800781 127.351562 41.800781 " clip-rule="nonzero"/></clipPath><clipPath id="1db66f2b8e"><rect x="0" width="165" y="0" height="150"/></clipPath><clipPath id="b20ec27375"><path d="M 318.152344 475.726562 L 481 475.726562 L 481 672.121094 L 318.152344 672.121094 Z M 318.152344 475.726562 " clip-rule="nonzero"/></clipPath><clipPath id="57c1dd0264"><path d="M 318.523438 542.175781 C 322.425781 507.449219 325.726562 500.925781 330.675781 495.449219 C 336.226562 489.375 344.851562 483.824219 352.800781 480.601562 C 360.523438 477.449219 369.601562 476.773438 377.773438 476.101562 C 385.5 475.5 392.773438 476.023438 400.574219 476.625 C 408.898438 477.226562 418.351562 476.699219 426.226562 479.699219 C 434.25 482.773438 445.949219 490.949219 448.199219 494.925781 C 449.175781 496.5 447.675781 498.523438 448.648438 499.125 C 450.226562 500.175781 457.5 493.351562 461.023438 494.851562 C 466.273438 497.175781 470.101562 512.699219 472.875 521.851562 C 475.5 530.625 476.101562 539.699219 477.375 548.625 C 478.574219 557.476562 479.625 566.625 480.226562 575.175781 C 480.675781 583.125 480.898438 590.625 480.675781 598.273438 C 480.449219 605.851562 480.601562 613.199219 478.875 620.773438 C 476.925781 629.101562 473.773438 638.625 469.050781 645.898438 C 464.550781 652.875 458.324219 659.550781 451.574219 663.75 C 445.050781 667.800781 437.023438 669.75 429.300781 670.949219 C 421.574219 672.226562 413.398438 672.449219 405.226562 671.101562 C 396.148438 669.601562 384.449219 665.101562 377.398438 661.5 C 372.523438 659.101562 368.324219 654.75 365.925781 653.625 C 364.949219 653.175781 364.648438 653.398438 363.75 652.949219 C 362.101562 652.125 358.5 649.574219 357.300781 648.375 C 356.699219 647.773438 356.625 647.25 356.25 646.875 C 356.023438 646.648438 355.800781 646.648438 355.574219 646.425781 C 355.125 645.976562 354.675781 644.851562 354.226562 644.101562 C 353.773438 643.351562 353.023438 642.601562 352.648438 642 C 352.425781 641.550781 352.5 641.101562 352.273438 640.726562 C 352.125 640.273438 351.824219 640.050781 351.601562 639.601562 C 351.375 638.925781 351.375 637.800781 351.148438 636.976562 C 350.925781 636.148438 350.476562 635.175781 350.324219 634.425781 C 350.25 633.976562 350.398438 633.601562 350.398438 633.148438 C 350.324219 632.699219 350.101562 632.324219 350.101562 631.800781 C 350.101562 631.125 350.398438 630.074219 350.476562 629.175781 C 350.550781 628.351562 350.398438 627.300781 350.550781 626.550781 C 350.625 626.101562 350.851562 625.726562 351 625.351562 C 351.074219 624.898438 351 624.523438 351.148438 624 C 351.375 623.324219 351.976562 622.425781 352.351562 621.675781 C 352.648438 620.851562 352.875 619.800781 353.25 619.125 C 353.476562 618.675781 353.773438 618.523438 354.074219 618.148438 C 354.300781 617.773438 354.300781 617.324219 354.601562 616.949219 C 355.050781 616.351562 355.875 615.75 356.476562 615.074219 C 357.074219 614.398438 357.601562 613.5 358.125 612.976562 C 358.5 612.675781 358.875 612.523438 359.25 612.300781 C 359.625 612 359.773438 611.625 360.148438 611.324219 C 360.75 610.875 361.800781 610.574219 362.550781 610.125 C 363.300781 609.75 364.125 609 364.726562 608.699219 C 365.25 608.550781 365.625 608.550781 366.074219 608.398438 C 366.449219 608.25 366.75 607.949219 367.199219 607.800781 C 367.949219 607.574219 369 607.574219 369.824219 607.425781 C 370.726562 607.273438 371.699219 606.824219 372.375 606.824219 C 372.898438 606.75 373.273438 606.898438 373.726562 606.898438 C 374.175781 606.898438 374.550781 606.675781 375.074219 606.675781 C 375.75 606.75 376.800781 607.050781 377.625 607.199219 C 378.523438 607.273438 379.574219 607.199219 380.25 607.425781 C 380.773438 607.5 381.074219 607.800781 381.449219 607.949219 C 381.898438 608.023438 382.273438 608.023438 382.800781 608.175781 C 383.476562 608.398438 384.300781 609.074219 385.125 609.449219 C 385.875 609.824219 386.925781 610.125 387.523438 610.5 C 387.976562 610.726562 388.125 611.101562 388.5 611.398438 C 388.875 611.625 389.25 611.699219 389.699219 612 C 390.226562 612.449219 390.824219 613.351562 391.425781 613.949219 C 392.101562 614.625 393.375 615.75 393.375 615.75 C 393.449219 615.675781 397.875 618.601562 401.398438 619.726562 C 407.324219 621.601562 421.199219 627.074219 426.375 623.625 C 431.550781 620.175781 431.550781 607.574219 432.375 598.875 C 433.351562 589.351562 431.925781 576.300781 431.101562 568.5 C 430.648438 563.550781 430.574219 557.175781 429.226562 556.5 C 428.550781 556.199219 427.949219 557.101562 426.75 557.851562 C 423.300781 559.875 412.949219 565.800781 406.5 570.449219 C 400.125 575.023438 395.25 582.148438 388.199219 585.601562 C 380.851562 589.199219 371.023438 591.976562 363.148438 591.226562 C 355.648438 590.550781 348 586.875 341.851562 582.226562 C 335.324219 577.351562 329.398438 569.175781 325.425781 562.125 C 321.898438 555.75 318.523438 542.175781 318.523438 542.175781 M 364.351562 527.398438 C 389.851562 524.101562 392.699219 522.523438 392.550781 522 C 392.398438 521.398438 388.199219 521.324219 385.125 521.699219 C 379.875 522.226562 364.351562 527.398438 364.351562 527.398438 " clip-rule="nonzero"/></clipPath><clipPath id="123bea0996"><path d="M 0.480469 0.726562 L 162.960938 0.726562 L 162.960938 197.121094 L 0.480469 197.121094 Z M 0.480469 0.726562 " clip-rule="nonzero"/></clipPath><clipPath id="325351238f"><path d="M 0.523438 67.175781 C 4.425781 32.449219 7.726562 25.925781 12.675781 20.449219 C 18.226562 14.375 26.851562 8.824219 34.800781 5.601562 C 42.523438 2.449219 51.601562 1.773438 59.773438 1.101562 C 67.5 0.5 74.773438 1.023438 82.574219 1.625 C 90.898438 2.226562 100.351562 1.699219 108.226562 4.699219 C 116.25 7.773438 127.949219 15.949219 130.199219 19.925781 C 131.175781 21.5 129.675781 23.523438 130.648438 24.125 C 132.226562 25.175781 139.5 18.351562 143.023438 19.851562 C 148.273438 22.175781 152.101562 37.699219 154.875 46.851562 C 157.5 55.625 158.101562 64.699219 159.375 73.625 C 160.574219 82.476562 161.625 91.625 162.226562 100.175781 C 162.675781 108.125 162.898438 115.625 162.675781 123.273438 C 162.449219 130.851562 162.601562 138.199219 160.875 145.773438 C 158.925781 154.101562 155.773438 163.625 151.050781 170.898438 C 146.550781 177.875 140.324219 184.550781 133.574219 188.75 C 127.050781 192.800781 119.023438 194.75 111.300781 195.949219 C 103.574219 197.226562 95.398438 197.449219 87.226562 196.101562 C 78.148438 194.601562 66.449219 190.101562 59.398438 186.5 C 54.523438 184.101562 50.324219 179.75 47.925781 178.625 C 46.949219 178.175781 46.648438 178.398438 45.75 177.949219 C 44.101562 177.125 40.5 174.574219 39.300781 173.375 C 38.699219 172.773438 38.625 172.25 38.25 171.875 C 38.023438 171.648438 37.800781 171.648438 37.574219 171.425781 C 37.125 170.976562 36.675781 169.851562 36.226562 169.101562 C 35.773438 168.351562 35.023438 167.601562 34.648438 167 C 34.425781 166.550781 34.5 166.101562 34.273438 165.726562 C 34.125 165.273438 33.824219 165.050781 33.601562 164.601562 C 33.375 163.925781 33.375 162.800781 33.148438 161.976562 C 32.925781 161.148438 32.476562 160.175781 32.324219 159.425781 C 32.25 158.976562 32.398438 158.601562 32.398438 158.148438 C 32.324219 157.699219 32.101562 157.324219 32.101562 156.800781 C 32.101562 156.125 32.398438 155.074219 32.476562 154.175781 C 32.550781 153.351562 32.398438 152.300781 32.550781 151.550781 C 32.625 151.101562 32.851562 150.726562 33 150.351562 C 33.074219 149.898438 33 149.523438 33.148438 149 C 33.375 148.324219 33.976562 147.425781 34.351562 146.675781 C 34.648438 145.851562 34.875 144.800781 35.25 144.125 C 35.476562 143.675781 35.773438 143.523438 36.074219 143.148438 C 36.300781 142.773438 36.300781 142.324219 36.601562 141.949219 C 37.050781 141.351562 37.875 140.75 38.476562 140.074219 C 39.074219 139.398438 39.601562 138.5 40.125 137.976562 C 40.5 137.675781 40.875 137.523438 41.25 137.300781 C 41.625 137 41.773438 136.625 42.148438 136.324219 C 42.75 135.875 43.800781 135.574219 44.550781 135.125 C 45.300781 134.75 46.125 134 46.726562 133.699219 C 47.25 133.550781 47.625 133.550781 48.074219 133.398438 C 48.449219 133.25 48.75 132.949219 49.199219 132.800781 C 49.949219 132.574219 51 132.574219 51.824219 132.425781 C 52.726562 132.273438 53.699219 131.824219 54.375 131.824219 C 54.898438 131.75 55.273438 131.898438 55.726562 131.898438 C 56.175781 131.898438 56.550781 131.675781 57.074219 131.675781 C 57.75 131.75 58.800781 132.050781 59.625 132.199219 C 60.523438 132.273438 61.574219 132.199219 62.25 132.425781 C 62.773438 132.5 63.074219 132.800781 63.449219 132.949219 C 63.898438 133.023438 64.273438 133.023438 64.800781 133.175781 C 65.476562 133.398438 66.300781 134.074219 67.125 134.449219 C 67.875 134.824219 68.925781 135.125 69.523438 135.5 C 69.976562 135.726562 70.125 136.101562 70.5 136.398438 C 70.875 136.625 71.25 136.699219 71.699219 137 C 72.226562 137.449219 72.824219 138.351562 73.425781 138.949219 C 74.101562 139.625 75.375 140.75 75.375 140.75 C 75.449219 140.675781 79.875 143.601562 83.398438 144.726562 C 89.324219 146.601562 103.199219 152.074219 108.375 148.625 C 113.550781 145.175781 113.550781 132.574219 114.375 123.875 C 115.351562 114.351562 113.925781 101.300781 113.101562 93.5 C 112.648438 88.550781 112.574219 82.175781 111.226562 81.5 C 110.550781 81.199219 109.949219 82.101562 108.75 82.851562 C 105.300781 84.875 94.949219 90.800781 88.5 95.449219 C 82.125 100.023438 77.25 107.148438 70.199219 110.601562 C 62.851562 114.199219 53.023438 116.976562 45.148438 116.226562 C 37.648438 115.550781 30 111.875 23.851562 107.226562 C 17.324219 102.351562 11.398438 94.175781 7.425781 87.125 C 3.898438 80.75 0.523438 67.175781 0.523438 67.175781 M 46.351562 52.398438 C 71.851562 49.101562 74.699219 47.523438 74.550781 47 C 74.398438 46.398438 70.199219 46.324219 67.125 46.699219 C 61.875 47.226562 46.351562 52.398438 46.351562 52.398438 " clip-rule="nonzero"/></clipPath><clipPath id="7a5c243e13"><rect x="0" width="163" y="0" height="198"/></clipPath><clipPath id="e48a205bd5"><path d="M 498.070312 472.738281 L 596 472.738281 L 596 623.746094 L 498.070312 623.746094 Z M 498.070312 472.738281 " clip-rule="nonzero"/></clipPath><clipPath id="633f7ce187"><path d="M 577.5 515.25 C 551.175781 522.898438 543.75 537.675781 541.648438 547.726562 C 539.773438 556.726562 539.851562 569.773438 544.425781 575.101562 C 548.324219 579.675781 559.574219 578.398438 564.226562 580.273438 C 567 581.398438 568.726562 582.375 570.523438 583.800781 C 572.398438 585.300781 574.125 587.175781 575.398438 589.199219 C 576.675781 591.148438 577.726562 593.476562 578.324219 595.800781 C 578.851562 598.125 579.074219 600.675781 578.925781 603 C 578.699219 605.398438 578.101562 607.875 577.199219 610.050781 C 576.300781 612.226562 574.949219 614.324219 573.375 616.125 C 571.726562 617.925781 569.773438 619.5 567.75 620.699219 C 565.648438 621.898438 563.324219 622.726562 560.925781 623.175781 C 558.601562 623.699219 556.125 623.773438 553.726562 623.476562 C 551.398438 623.101562 548.925781 622.425781 546.824219 621.375 C 544.726562 620.324219 542.625 618.824219 540.898438 617.175781 C 539.25 615.523438 537.75 613.425781 536.699219 611.324219 C 535.648438 609.226562 534.898438 606.75 534.523438 604.425781 C 534.226562 602.101562 534.300781 599.550781 534.675781 597.226562 C 535.125 594.824219 536.023438 592.5 537.148438 590.398438 C 538.351562 588.300781 539.925781 586.351562 541.648438 584.773438 C 543.449219 583.125 545.550781 581.773438 547.726562 580.800781 C 549.898438 579.898438 552.375 579.226562 554.699219 579.074219 C 557.101562 578.851562 559.648438 579.074219 561.976562 579.601562 C 564.226562 580.199219 566.550781 581.175781 568.574219 582.449219 C 570.601562 583.726562 572.476562 585.375 573.976562 587.25 C 575.476562 589.050781 576.75 591.300781 577.574219 593.476562 C 578.398438 595.726562 578.925781 598.199219 579 600.601562 C 579.074219 603 578.699219 605.476562 578.023438 607.726562 C 577.351562 610.050781 576.226562 612.300781 574.875 614.25 C 573.449219 616.199219 571.648438 618 569.773438 619.351562 C 567.824219 620.773438 565.574219 621.898438 563.324219 622.648438 C 561 623.324219 558.523438 623.550781 556.125 623.625 C 553.875 623.699219 552.226562 623.773438 549.375 623.324219 C 544.273438 622.5 534.976562 621.375 528.675781 617.851562 C 521.699219 613.949219 514.5 606.976562 509.699219 599.773438 C 504.824219 592.351562 501.523438 583.351562 499.875 573.898438 C 497.925781 563.25 497.625 551.25 500.398438 538.726562 C 503.925781 523.125 512.550781 498.523438 523.199219 488.175781 C 531.148438 480.375 542.851562 478.273438 552.300781 475.800781 C 560.625 473.550781 571.574219 472.648438 576.601562 472.949219 C 578.925781 473.023438 580.050781 473.476562 581.625 474.074219 C 583.273438 474.601562 584.851562 475.425781 586.273438 476.324219 C 587.699219 477.300781 589.050781 478.425781 590.175781 479.699219 C 591.300781 480.898438 592.351562 482.324219 593.175781 483.824219 C 594 485.324219 594.675781 486.976562 595.125 488.625 C 595.574219 490.273438 595.800781 492 595.800781 493.726562 C 595.875 495.375 595.648438 497.175781 595.273438 498.824219 C 594.976562 500.476562 594.375 502.125 593.625 503.625 C 592.800781 505.199219 591.824219 506.625 590.773438 507.976562 C 589.648438 509.25 588.375 510.449219 586.949219 511.425781 C 585.601562 512.398438 584.101562 513.300781 582.449219 513.898438 C 580.875 514.574219 577.5 515.25 577.5 515.25 " clip-rule="nonzero"/></clipPath><clipPath id="5657d7768f"><path d="M 0.0703125 0.738281 L 97.921875 0.738281 L 97.921875 151.746094 L 0.0703125 151.746094 Z M 0.0703125 0.738281 " clip-rule="nonzero"/></clipPath><clipPath id="124691563d"><path d="M 79.5 43.25 C 53.175781 50.898438 45.75 65.675781 43.648438 75.726562 C 41.773438 84.726562 41.851562 97.773438 46.425781 103.101562 C 50.324219 107.675781 61.574219 106.398438 66.226562 108.273438 C 69 109.398438 70.726562 110.375 72.523438 111.800781 C 74.398438 113.300781 76.125 115.175781 77.398438 117.199219 C 78.675781 119.148438 79.726562 121.476562 80.324219 123.800781 C 80.851562 126.125 81.074219 128.675781 80.925781 131 C 80.699219 133.398438 80.101562 135.875 79.199219 138.050781 C 78.300781 140.226562 76.949219 142.324219 75.375 144.125 C 73.726562 145.925781 71.773438 147.5 69.75 148.699219 C 67.648438 149.898438 65.324219 150.726562 62.925781 151.175781 C 60.601562 151.699219 58.125 151.773438 55.726562 151.476562 C 53.398438 151.101562 50.925781 150.425781 48.824219 149.375 C 46.726562 148.324219 44.625 146.824219 42.898438 145.175781 C 41.25 143.523438 39.75 141.425781 38.699219 139.324219 C 37.648438 137.226562 36.898438 134.75 36.523438 132.425781 C 36.226562 130.101562 36.300781 127.550781 36.675781 125.226562 C 37.125 122.824219 38.023438 120.5 39.148438 118.398438 C 40.351562 116.300781 41.925781 114.351562 43.648438 112.773438 C 45.449219 111.125 47.550781 109.773438 49.726562 108.800781 C 51.898438 107.898438 54.375 107.226562 56.699219 107.074219 C 59.101562 106.851562 61.648438 107.074219 63.976562 107.601562 C 66.226562 108.199219 68.550781 109.175781 70.574219 110.449219 C 72.601562 111.726562 74.476562 113.375 75.976562 115.25 C 77.476562 117.050781 78.75 119.300781 79.574219 121.476562 C 80.398438 123.726562 80.925781 126.199219 81 128.601562 C 81.074219 131 80.699219 133.476562 80.023438 135.726562 C 79.351562 138.050781 78.226562 140.300781 76.875 142.25 C 75.449219 144.199219 73.648438 146 71.773438 147.351562 C 69.824219 148.773438 67.574219 149.898438 65.324219 150.648438 C 63 151.324219 60.523438 151.550781 58.125 151.625 C 55.875 151.699219 54.226562 151.773438 51.375 151.324219 C 46.273438 150.5 36.976562 149.375 30.675781 145.851562 C 23.699219 141.949219 16.5 134.976562 11.699219 127.773438 C 6.824219 120.351562 3.523438 111.351562 1.875 101.898438 C -0.0742188 91.25 -0.375 79.25 2.398438 66.726562 C 5.925781 51.125 14.550781 26.523438 25.199219 16.175781 C 33.148438 8.375 44.851562 6.273438 54.300781 3.800781 C 62.625 1.550781 73.574219 0.648438 78.601562 0.949219 C 80.925781 1.023438 82.050781 1.476562 83.625 2.074219 C 85.273438 2.601562 86.851562 3.425781 88.273438 4.324219 C 89.699219 5.300781 91.050781 6.425781 92.175781 7.699219 C 93.300781 8.898438 94.351562 10.324219 95.175781 11.824219 C 96 13.324219 96.675781 14.976562 97.125 16.625 C 97.574219 18.273438 97.800781 20 97.800781 21.726562 C 97.875 23.375 97.648438 25.175781 97.273438 26.824219 C 96.976562 28.476562 96.375 30.125 95.625 31.625 C 94.800781 33.199219 93.824219 34.625 92.773438 35.976562 C 91.648438 37.25 90.375 38.449219 88.949219 39.425781 C 87.601562 40.398438 86.101562 41.300781 84.449219 41.898438 C 82.875 42.574219 79.5 43.25 79.5 43.25 " clip-rule="nonzero"/></clipPath><clipPath id="2df85b7cdb"><rect x="0" width="98" y="0" height="152"/></clipPath><clipPath id="d60e7c5f78"><path d="M 539.929688 473.78125 L 607.34375 473.78125 L 607.34375 551.476562 L 539.929688 551.476562 Z M 539.929688 473.78125 " clip-rule="nonzero"/></clipPath><clipPath id="e52bddd336"><path d="M 578.625 482.625 C 604.875 519.449219 605.324219 520.273438 605.925781 521.925781 C 606.523438 523.574219 606.976562 525.300781 607.199219 527.023438 C 607.351562 528.75 607.351562 530.550781 607.125 532.273438 C 606.976562 534 606.523438 535.726562 605.851562 537.375 C 605.25 539.023438 604.425781 540.601562 603.449219 542.023438 C 602.398438 543.449219 601.199219 544.800781 599.925781 545.925781 C 598.648438 547.050781 597.148438 548.101562 595.574219 548.851562 C 594.074219 549.675781 592.351562 550.273438 590.699219 550.726562 C 588.976562 551.101562 587.175781 551.324219 585.449219 551.324219 C 583.726562 551.324219 581.925781 551.101562 580.273438 550.648438 C 578.550781 550.273438 576.898438 549.601562 575.324219 548.773438 C 573.824219 547.949219 572.324219 546.976562 571.050781 545.773438 C 569.773438 544.648438 569.023438 542.550781 567.601562 541.875 C 566.25 541.199219 564.375 542.101562 562.726562 541.5 C 560.773438 540.824219 558.523438 539.101562 556.875 537.449219 C 555.148438 535.800781 553.648438 533.851562 552.601562 531.75 C 551.476562 529.648438 550.726562 527.25 550.351562 525 C 549.976562 522.675781 549.976562 520.125 550.351562 517.800781 C 550.800781 515.476562 551.550781 513.148438 552.675781 511.050781 C 553.800781 509.023438 555.300781 507 557.023438 505.425781 C 558.75 503.773438 560.851562 502.425781 562.949219 501.449219 C 565.125 500.476562 567.523438 499.800781 569.851562 499.574219 C 572.25 499.351562 574.726562 499.5 576.976562 500.023438 C 579.300781 500.550781 581.625 501.449219 583.648438 502.648438 C 585.601562 503.925781 587.550781 505.574219 589.050781 507.375 C 590.550781 509.175781 591.824219 511.273438 592.648438 513.449219 C 593.550781 515.699219 594.074219 518.101562 594.148438 520.5 C 594.300781 522.824219 594 525.300781 593.324219 527.550781 C 592.726562 529.800781 591.675781 532.050781 590.324219 534 C 588.976562 535.949219 587.25 537.75 585.375 539.175781 C 583.5 540.601562 581.25 541.726562 579.074219 542.476562 C 576.824219 543.226562 574.351562 543.601562 572.023438 543.601562 C 569.625 543.601562 567.148438 543.148438 564.976562 542.398438 C 562.726562 541.648438 560.550781 540.449219 558.675781 539.023438 C 556.800781 537.601562 555.074219 535.726562 553.800781 533.773438 C 552.449219 531.824219 551.476562 529.574219 550.800781 527.324219 C 550.199219 525 549.976562 522.523438 550.125 520.199219 C 550.273438 517.875 550.800781 515.398438 551.699219 513.226562 C 552.523438 511.050781 553.875 508.949219 555.375 507.148438 C 556.949219 505.351562 558.824219 503.773438 560.851562 502.574219 C 562.875 501.375 565.199219 500.398438 567.523438 499.949219 C 569.851562 499.425781 572.175781 499.273438 574.648438 499.574219 C 577.574219 500.023438 580.5 500.925781 584.023438 502.800781 C 589.5 505.726562 600.300781 513.449219 603.523438 517.273438 C 605.023438 519.074219 605.324219 520.273438 605.925781 521.925781 C 606.523438 523.574219 606.976562 525.300781 607.199219 527.023438 C 607.351562 528.75 607.351562 530.550781 607.125 532.273438 C 606.976562 534 606.523438 535.726562 605.851562 537.375 C 605.25 539.023438 604.425781 540.601562 603.449219 542.023438 C 602.398438 543.449219 601.199219 544.800781 599.925781 545.925781 C 598.648438 547.050781 597.148438 548.101562 595.574219 548.851562 C 594.074219 549.675781 592.351562 550.273438 590.699219 550.726562 C 588.976562 551.101562 587.175781 551.324219 585.449219 551.324219 C 583.726562 551.324219 581.925781 551.101562 580.273438 550.648438 C 578.550781 550.273438 576.898438 549.601562 575.324219 548.773438 C 573.824219 547.949219 572.324219 546.976562 571.050781 545.773438 C 569.773438 544.648438 569.175781 543.898438 567.601562 541.875 C 562.875 535.726562 544.875 510.523438 541.648438 503.550781 C 540.523438 501.300781 540.523438 500.324219 540.226562 498.601562 C 540 496.875 539.925781 495.148438 540.074219 493.425781 C 540.226562 491.699219 540.601562 489.976562 541.125 488.398438 C 541.726562 486.75 542.476562 485.175781 543.375 483.75 C 544.351562 482.324219 545.476562 480.898438 546.675781 479.773438 C 547.949219 478.574219 549.375 477.523438 550.875 476.699219 C 552.300781 475.875 553.949219 475.125 555.601562 474.675781 C 557.25 474.226562 559.050781 473.925781 560.699219 473.925781 C 562.425781 473.851562 564.226562 474 565.875 474.375 C 567.523438 474.75 569.25 475.273438 570.75 476.023438 C 572.324219 476.773438 573.824219 477.75 575.101562 478.800781 C 576.449219 479.925781 578.625 482.625 578.625 482.625 " clip-rule="nonzero"/></clipPath><clipPath id="ace43d363c"><path d="M 0.929688 0.78125 L 68.34375 0.78125 L 68.34375 78.476562 L 0.929688 78.476562 Z M 0.929688 0.78125 " clip-rule="nonzero"/></clipPath><clipPath id="71a1ad5e97"><path d="M 39.625 9.625 C 65.875 46.449219 66.324219 47.273438 66.925781 48.925781 C 67.523438 50.574219 67.976562 52.300781 68.199219 54.023438 C 68.351562 55.75 68.351562 57.550781 68.125 59.273438 C 67.976562 61 67.523438 62.726562 66.851562 64.375 C 66.25 66.023438 65.425781 67.601562 64.449219 69.023438 C 63.398438 70.449219 62.199219 71.800781 60.925781 72.925781 C 59.648438 74.050781 58.148438 75.101562 56.574219 75.851562 C 55.074219 76.675781 53.351562 77.273438 51.699219 77.726562 C 49.976562 78.101562 48.175781 78.324219 46.449219 78.324219 C 44.726562 78.324219 42.925781 78.101562 41.273438 77.648438 C 39.550781 77.273438 37.898438 76.601562 36.324219 75.773438 C 34.824219 74.949219 33.324219 73.976562 32.050781 72.773438 C 30.773438 71.648438 30.023438 69.550781 28.601562 68.875 C 27.25 68.199219 25.375 69.101562 23.726562 68.5 C 21.773438 67.824219 19.523438 66.101562 17.875 64.449219 C 16.148438 62.800781 14.648438 60.851562 13.601562 58.75 C 12.476562 56.648438 11.726562 54.25 11.351562 52 C 10.976562 49.675781 10.976562 47.125 11.351562 44.800781 C 11.800781 42.476562 12.550781 40.148438 13.675781 38.050781 C 14.800781 36.023438 16.300781 34 18.023438 32.425781 C 19.75 30.773438 21.851562 29.425781 23.949219 28.449219 C 26.125 27.476562 28.523438 26.800781 30.851562 26.574219 C 33.25 26.351562 35.726562 26.5 37.976562 27.023438 C 40.300781 27.550781 42.625 28.449219 44.648438 29.648438 C 46.601562 30.925781 48.550781 32.574219 50.050781 34.375 C 51.550781 36.175781 52.824219 38.273438 53.648438 40.449219 C 54.550781 42.699219 55.074219 45.101562 55.148438 47.5 C 55.300781 49.824219 55 52.300781 54.324219 54.550781 C 53.726562 56.800781 52.675781 59.050781 51.324219 61 C 49.976562 62.949219 48.25 64.75 46.375 66.175781 C 44.5 67.601562 42.25 68.726562 40.074219 69.476562 C 37.824219 70.226562 35.351562 70.601562 33.023438 70.601562 C 30.625 70.601562 28.148438 70.148438 25.976562 69.398438 C 23.726562 68.648438 21.550781 67.449219 19.675781 66.023438 C 17.800781 64.601562 16.074219 62.726562 14.800781 60.773438 C 13.449219 58.824219 12.476562 56.574219 11.800781 54.324219 C 11.199219 52 10.976562 49.523438 11.125 47.199219 C 11.273438 44.875 11.800781 42.398438 12.699219 40.226562 C 13.523438 38.050781 14.875 35.949219 16.375 34.148438 C 17.949219 32.351562 19.824219 30.773438 21.851562 29.574219 C 23.875 28.375 26.199219 27.398438 28.523438 26.949219 C 30.851562 26.425781 33.175781 26.273438 35.648438 26.574219 C 38.574219 27.023438 41.5 27.925781 45.023438 29.800781 C 50.5 32.726562 61.300781 40.449219 64.523438 44.273438 C 66.023438 46.074219 66.324219 47.273438 66.925781 48.925781 C 67.523438 50.574219 67.976562 52.300781 68.199219 54.023438 C 68.351562 55.75 68.351562 57.550781 68.125 59.273438 C 67.976562 61 67.523438 62.726562 66.851562 64.375 C 66.25 66.023438 65.425781 67.601562 64.449219 69.023438 C 63.398438 70.449219 62.199219 71.800781 60.925781 72.925781 C 59.648438 74.050781 58.148438 75.101562 56.574219 75.851562 C 55.074219 76.675781 53.351562 77.273438 51.699219 77.726562 C 49.976562 78.101562 48.175781 78.324219 46.449219 78.324219 C 44.726562 78.324219 42.925781 78.101562 41.273438 77.648438 C 39.550781 77.273438 37.898438 76.601562 36.324219 75.773438 C 34.824219 74.949219 33.324219 73.976562 32.050781 72.773438 C 30.773438 71.648438 30.175781 70.898438 28.601562 68.875 C 23.875 62.726562 5.875 37.523438 2.648438 30.550781 C 1.523438 28.300781 1.523438 27.324219 1.226562 25.601562 C 1 23.875 0.925781 22.148438 1.074219 20.425781 C 1.226562 18.699219 1.601562 16.976562 2.125 15.398438 C 2.726562 13.75 3.476562 12.175781 4.375 10.75 C 5.351562 9.324219 6.476562 7.898438 7.675781 6.773438 C 8.949219 5.574219 10.375 4.523438 11.875 3.699219 C 13.300781 2.875 14.949219 2.125 16.601562 1.675781 C 18.25 1.226562 20.050781 0.925781 21.699219 0.925781 C 23.425781 0.851562 25.226562 1 26.875 1.375 C 28.523438 1.75 30.25 2.273438 31.75 3.023438 C 33.324219 3.773438 34.824219 4.75 36.101562 5.800781 C 37.449219 6.925781 39.625 9.625 39.625 9.625 " clip-rule="nonzero"/></clipPath><clipPath id="4227211e3a"><rect x="0" width="69" y="0" height="79"/></clipPath></defs><rect x="-76.8" width="921.6" fill="#ffffff" y="-76.799999" height="921.599993" fill-opacity="1"/><rect x="-76.8" width="921.6" fill="#d88c5c" y="-76.799999" height="921.599993" fill-opacity="1"/><g clip-path="url(#36329b5d70)"><g clip-path="url(#dcbc9de7fa)"><g transform="matrix(1, 0, 0, 1, 55, 122)"><g clip-path="url(#ec0eb6d106)"><g clip-path="url(#5bdb516113)"><g clip-path="url(#9e97ef2b5f)"><rect x="-223.96" width="1105.92" fill="#545454" height="1105.919991" y="-290.959999" fill-opacity="1"/></g></g></g></g></g></g><g clip-path="url(#dd9d82a6e8)"><g clip-path="url(#af0e7aaea0)"><g transform="matrix(1, 0, 0, 1, 131, 200)"><g clip-path="url(#b02e9aae26)"><g clip-path="url(#a102ef4954)"><g clip-path="url(#a74319ceef)"><rect x="-299.96" width="1105.92" fill="#545454" height="1105.919991" y="-368.959999" fill-opacity="1"/></g></g></g></g></g></g><g clip-path="url(#af0d191b7c)"><g clip-path="url(#ad0d669e86)"><g transform="matrix(1, 0, 0, 1, 283, 229)"><g clip-path="url(#97056aace7)"><g clip-path="url(#b3104b626a)"><g clip-path="url(#51da7015a5)"><rect x="-451.96" width="1105.92" fill="#545454" height="1105.919991" y="-397.959999" fill-opacity="1"/></g></g></g></g></g></g><g clip-path="url(#7868ce5d68)"><g clip-path="url(#1976fda8ab)"><g transform="matrix(1, 0, 0, 1, 412, 162)"><g clip-path="url(#8369e585c1)"><g clip-path="url(#9e0e0a7bb9)"><g clip-path="url(#44c5aa0768)"><rect x="-580.96" width="1105.92" fill="#545454" height="1105.919991" y="-330.959999" fill-opacity="1"/></g></g></g></g></g></g><g clip-path="url(#de049af880)"><g clip-path="url(#3e94d48c89)"><g transform="matrix(1, 0, 0, 1, 445, 245)"><g clip-path="url(#85f5044f70)"><g clip-path="url(#9ef73d53ea)"><g clip-path="url(#4c0584dee4)"><path fill="#545454" d="M 0.0507812 -2.976562 L 164.296875 -2.976562 L 164.296875 137.648438 L 0.0507812 137.648438 Z M 0.0507812 -2.976562 " fill-opacity="1" fill-rule="nonzero"/></g></g></g></g></g></g><g clip-path="url(#2a430b05ec)"><g clip-path="url(#c216ceb604)"><g transform="matrix(1, 0, 0, 1, 12, 429)"><g clip-path="url(#c2439faf28)"><g clip-path="url(#6b77806a62)"><g clip-path="url(#25c0b89dcc)"><rect x="-180.96" width="1105.92" fill="#545454" height="1105.919991" y="-597.959999" fill-opacity="1"/></g></g></g></g></g></g><g clip-path="url(#168c73c3b7)"><g clip-path="url(#c5655e5d14)"><g transform="matrix(1, 0, 0, 1, 177, 440)"><g clip-path="url(#1db66f2b8e)"><g clip-path="url(#a32ecc38d4)"><g clip-path="url(#3fafe0e7d4)"><rect x="-345.96" width="1105.92" fill="#545454" height="1105.919991" y="-608.959999" fill-opacity="1"/></g></g></g></g></g></g><g clip-path="url(#b20ec27375)"><g clip-path="url(#57c1dd0264)"><g transform="matrix(1, 0, 0, 1, 318, 475)"><g clip-path="url(#7a5c243e13)"><g clip-path="url(#123bea0996)"><g clip-path="url(#325351238f)"><rect x="-486.96" width="1105.92" fill="#545454" height="1105.919991" y="-643.959999" fill-opacity="1"/></g></g></g></g></g></g><g clip-path="url(#e48a205bd5)"><g clip-path="url(#633f7ce187)"><g transform="matrix(1, 0, 0, 1, 498, 472)"><g clip-path="url(#2df85b7cdb)"><g clip-path="url(#5657d7768f)"><g clip-path="url(#124691563d)"><rect x="-666.96" width="1105.92" fill="#545454" height="1105.919991" y="-640.959999" fill-opacity="1"/></g></g></g></g></g></g><g clip-path="url(#d60e7c5f78)"><g clip-path="url(#e52bddd336)"><g transform="matrix(1, 0, 0, 1, 539, 473)"><g clip-path="url(#4227211e3a)"><g clip-path="url(#ace43d363c)"><g clip-path="url(#71a1ad5e97)"><rect x="-707.96" width="1105.92" fill="#545454" height="1105.919991" y="-641.959999" fill-opacity="1"/></g></g></g></g></g></g></svg>