<svg xmlns="http://www.w3.org/2000/svg" xmlns:xlink="http://www.w3.org/1999/xlink" width="1024" zoomAndPan="magnify" viewBox="0 0 768 767.999994" height="1024" preserveAspectRatio="xMidYMid meet" version="1.0"><defs><clipPath id="97b61d47c6"><path d="M 163 170.023438 L 523 170.023438 L 523 634.726562 L 163 634.726562 Z M 163 170.023438 " clip-rule="nonzero"/></clipPath><clipPath id="23ff34618e"><path d="M 166.726562 602.175781 C 200.023438 542.398438 201.898438 538.726562 207.898438 530.175781 C 218.773438 514.800781 242.25 486.601562 257.398438 468.226562 C 269.851562 453.074219 282.601562 439.351562 292.125 427.351562 C 299.175781 418.425781 302.101562 414.375 309.824219 403.125 C 326.398438 378.976562 368.023438 311.699219 384.449219 287.175781 C 392.25 275.625 396 269.773438 402.148438 261.824219 C 408 254.324219 414 247.726562 420.375 240.824219 C 426.898438 233.699219 433.5 227.550781 440.773438 219.75 C 449.550781 210.226562 459.75 196.125 468.976562 187.726562 C 476.25 181.050781 484.875 174.375 490.425781 172.050781 C 493.5 170.773438 495.675781 170.773438 498.300781 170.773438 C 500.925781 170.773438 503.625 171.226562 506.101562 172.050781 C 508.574219 172.875 511.050781 174.148438 513.148438 175.726562 C 515.25 177.300781 517.125 179.324219 518.625 181.5 C 520.050781 183.675781 521.25 186.148438 521.925781 188.699219 C 522.675781 191.175781 522.976562 193.949219 522.824219 196.574219 C 522.675781 199.199219 522.074219 201.898438 521.101562 204.300781 C 520.125 206.773438 518.699219 209.175781 517.050781 211.125 C 515.324219 213.148438 513.226562 214.949219 510.976562 216.300781 C 508.726562 217.648438 506.175781 218.699219 503.625 219.226562 C 501.074219 219.824219 498.300781 219.976562 495.675781 219.675781 C 493.050781 219.375 490.425781 218.625 488.023438 217.574219 C 485.625 216.449219 483.375 214.875 481.425781 213.074219 C 479.550781 211.273438 477.898438 209.101562 476.625 206.773438 C 475.425781 204.449219 474.523438 201.824219 474.074219 199.273438 C 473.699219 196.648438 473.699219 193.875 474.074219 191.324219 C 474.523438 188.773438 475.425781 186.074219 476.625 183.824219 C 477.824219 181.5 479.550781 179.25 481.425781 177.449219 C 483.300781 175.648438 485.625 174.148438 488.023438 173.023438 C 490.351562 171.898438 493.050781 171.148438 495.675781 170.925781 C 498.226562 170.625 501 170.773438 503.550781 171.300781 C 506.101562 171.898438 508.726562 172.875 510.976562 174.226562 C 513.148438 175.574219 515.324219 177.375 516.976562 179.398438 C 518.699219 181.351562 520.125 183.75 521.101562 186.148438 C 522.074219 188.625 522.675781 191.324219 522.824219 193.949219 C 522.976562 196.574219 522.675781 199.273438 521.925781 201.824219 C 521.25 204.375 520.050781 206.851562 518.625 209.023438 C 517.125 211.199219 515.25 213.226562 513.148438 214.800781 C 511.050781 216.375 508.125 217.125 506.175781 218.550781 C 504.523438 219.601562 504.148438 220.050781 502.050781 222.074219 C 493.574219 230.550781 456.601562 269.925781 440.324219 290.550781 C 428.101562 306.074219 421.875 316.949219 410.925781 333.523438 C 396.300781 355.648438 374.925781 390.976562 360.898438 412.125 C 351.226562 426.601562 347.175781 433.5 335.773438 448.425781 C 315.449219 475.050781 262.726562 533.101562 246.300781 555.074219 C 239.398438 564.375 236.851562 568.800781 232.648438 575.699219 C 228.675781 582.300781 225.976562 588.226562 221.550781 595.574219 C 215.773438 605.175781 204.976562 623.25 200.398438 628.351562 C 198.675781 630.226562 197.773438 630.675781 196.351562 631.574219 C 194.851562 632.476562 193.273438 633.148438 191.625 633.675781 C 189.976562 634.199219 188.25 634.5 186.523438 634.648438 C 184.800781 634.726562 183.074219 634.648438 181.351562 634.351562 C 179.699219 634.050781 177.976562 633.523438 176.398438 632.851562 C 174.824219 632.101562 173.324219 631.199219 171.976562 630.148438 C 170.625 629.101562 169.351562 627.824219 168.300781 626.476562 C 167.25 625.199219 166.273438 623.625 165.601562 622.050781 C 164.925781 620.550781 164.324219 618.824219 164.023438 617.175781 C 163.726562 615.449219 163.648438 613.726562 163.726562 612 C 163.800781 610.273438 164.101562 608.550781 164.625 606.898438 C 165.148438 605.25 166.726562 602.175781 166.726562 602.175781 " clip-rule="nonzero"/></clipPath><clipPath id="73e05c0686"><path d="M 0.441406 0.398438 L 360 0.398438 L 360 464.726562 L 0.441406 464.726562 Z M 0.441406 0.398438 " clip-rule="nonzero"/></clipPath><clipPath id="0300243c17"><path d="M 3.726562 432.175781 C 37.023438 372.398438 38.898438 368.726562 44.898438 360.175781 C 55.773438 344.800781 79.25 316.601562 94.398438 298.226562 C 106.851562 283.074219 119.601562 269.351562 129.125 257.351562 C 136.175781 248.425781 139.101562 244.375 146.824219 233.125 C 163.398438 208.976562 205.023438 141.699219 221.449219 117.175781 C 229.25 105.625 233 99.773438 239.148438 91.824219 C 245 84.324219 251 77.726562 257.375 70.824219 C 263.898438 63.699219 270.5 57.550781 277.773438 49.75 C 286.550781 40.226562 296.75 26.125 305.976562 17.726562 C 313.25 11.050781 321.875 4.375 327.425781 2.050781 C 330.5 0.773438 332.675781 0.773438 335.300781 0.773438 C 337.925781 0.773438 340.625 1.226562 343.101562 2.050781 C 345.574219 2.875 348.050781 4.148438 350.148438 5.726562 C 352.25 7.300781 354.125 9.324219 355.625 11.5 C 357.050781 13.675781 358.25 16.148438 358.925781 18.699219 C 359.675781 21.175781 359.976562 23.949219 359.824219 26.574219 C 359.675781 29.199219 359.074219 31.898438 358.101562 34.300781 C 357.125 36.773438 355.699219 39.175781 354.050781 41.125 C 352.324219 43.148438 350.226562 44.949219 347.976562 46.300781 C 345.726562 47.648438 343.175781 48.699219 340.625 49.226562 C 338.074219 49.824219 335.300781 49.976562 332.675781 49.675781 C 330.050781 49.375 327.425781 48.625 325.023438 47.574219 C 322.625 46.449219 320.375 44.875 318.425781 43.074219 C 316.550781 41.273438 314.898438 39.101562 313.625 36.773438 C 312.425781 34.449219 311.523438 31.824219 311.074219 29.273438 C 310.699219 26.648438 310.699219 23.875 311.074219 21.324219 C 311.523438 18.773438 312.425781 16.074219 313.625 13.824219 C 314.824219 11.5 316.550781 9.25 318.425781 7.449219 C 320.300781 5.648438 322.625 4.148438 325.023438 3.023438 C 327.351562 1.898438 330.050781 1.148438 332.675781 0.925781 C 335.226562 0.625 338 0.773438 340.550781 1.300781 C 343.101562 1.898438 345.726562 2.875 347.976562 4.226562 C 350.148438 5.574219 352.324219 7.375 353.976562 9.398438 C 355.699219 11.351562 357.125 13.75 358.101562 16.148438 C 359.074219 18.625 359.675781 21.324219 359.824219 23.949219 C 359.976562 26.574219 359.675781 29.273438 358.925781 31.824219 C 358.25 34.375 357.050781 36.851562 355.625 39.023438 C 354.125 41.199219 352.25 43.226562 350.148438 44.800781 C 348.050781 46.375 345.125 47.125 343.175781 48.550781 C 341.523438 49.601562 341.148438 50.050781 339.050781 52.074219 C 330.574219 60.550781 293.601562 99.925781 277.324219 120.550781 C 265.101562 136.074219 258.875 146.949219 247.925781 163.523438 C 233.300781 185.648438 211.925781 220.976562 197.898438 242.125 C 188.226562 256.601562 184.175781 263.5 172.773438 278.425781 C 152.449219 305.050781 99.726562 363.101562 83.300781 385.074219 C 76.398438 394.375 73.851562 398.800781 69.648438 405.699219 C 65.675781 412.300781 62.976562 418.226562 58.550781 425.574219 C 52.773438 435.175781 41.976562 453.25 37.398438 458.351562 C 35.675781 460.226562 34.773438 460.675781 33.351562 461.574219 C 31.851562 462.476562 30.273438 463.148438 28.625 463.675781 C 26.976562 464.199219 25.25 464.5 23.523438 464.648438 C 21.800781 464.726562 20.074219 464.648438 18.351562 464.351562 C 16.699219 464.050781 14.976562 463.523438 13.398438 462.851562 C 11.824219 462.101562 10.324219 461.199219 8.976562 460.148438 C 7.625 459.101562 6.351562 457.824219 5.300781 456.476562 C 4.25 455.199219 3.273438 453.625 2.601562 452.050781 C 1.925781 450.550781 1.324219 448.824219 1.023438 447.175781 C 0.726562 445.449219 0.648438 443.726562 0.726562 442 C 0.800781 440.273438 1.101562 438.550781 1.625 436.898438 C 2.148438 435.25 3.726562 432.175781 3.726562 432.175781 " clip-rule="nonzero"/></clipPath><clipPath id="44c2143b3e"><rect x="0" width="360" y="0" height="465"/></clipPath><clipPath id="628db3ed28"><path d="M 315.699219 165.320312 L 516.503906 165.320312 L 516.503906 234.804688 L 315.699219 234.804688 Z M 315.699219 165.320312 " clip-rule="nonzero"/></clipPath><clipPath id="61e7a9d964"><path d="M 496.125 208.5 C 460.875 211.050781 439.875 213.148438 420.148438 216.675781 C 396.375 220.875 354.75 233.023438 342.523438 234.449219 C 338.773438 234.824219 337.574219 234.824219 335.175781 234.449219 C 332.773438 234.074219 330.300781 233.25 328.125 232.125 C 326.023438 231 323.925781 229.425781 322.273438 227.699219 C 320.550781 225.898438 319.125 223.800781 318.074219 221.625 C 317.101562 219.375 316.351562 216.898438 316.125 214.5 C 315.824219 212.101562 315.976562 209.476562 316.5 207.148438 C 317.023438 204.75 317.925781 202.351562 319.199219 200.25 C 320.398438 198.148438 322.125 196.199219 323.925781 194.625 C 325.800781 193.050781 327.976562 191.699219 330.226562 190.800781 C 332.476562 189.898438 335.023438 189.300781 337.425781 189.226562 C 339.898438 189.074219 342.449219 189.300781 344.773438 189.976562 C 347.101562 190.574219 349.5 191.699219 351.449219 193.050781 C 353.476562 194.398438 355.351562 196.125 356.851562 198.074219 C 358.351562 200.023438 359.550781 202.273438 360.300781 204.601562 C 361.125 206.925781 361.574219 209.476562 361.574219 211.875 C 361.574219 214.273438 361.125 216.824219 360.375 219.148438 C 359.625 221.476562 358.425781 223.726562 356.925781 225.675781 C 355.5 227.625 353.625 229.425781 351.601562 230.773438 C 349.574219 232.125 347.25 233.25 344.925781 233.851562 C 342.601562 234.523438 340.050781 234.824219 337.574219 234.675781 C 335.175781 234.601562 332.625 234.074219 330.375 233.175781 C 328.125 232.273438 325.875 230.925781 324.074219 229.351562 C 322.199219 227.773438 320.550781 225.824219 319.273438 223.726562 C 318 221.699219 317.023438 219.300781 316.5 216.898438 C 315.976562 214.574219 315.824219 211.949219 316.050781 209.550781 C 316.351562 207.148438 317.023438 204.675781 318 202.425781 C 319.050781 200.25 320.476562 198.074219 322.125 196.351562 C 323.851562 194.550781 325.875 192.976562 327.976562 191.851562 C 330.148438 190.726562 331.351562 190.425781 334.949219 189.449219 C 347.023438 186.226562 394.5 176.550781 413.925781 173.324219 C 425.175781 171.449219 430.273438 171.074219 440.625 169.949219 C 455.25 168.449219 484.949219 165.523438 493.351562 165.375 C 495.976562 165.375 496.875 165.375 498.523438 165.675781 C 500.25 165.976562 501.976562 166.5 503.550781 167.25 C 505.125 167.925781 506.625 168.824219 507.976562 169.875 C 509.324219 170.925781 510.601562 172.199219 511.648438 173.550781 C 512.773438 174.898438 513.675781 176.398438 514.351562 177.976562 C 515.101562 179.550781 515.625 181.273438 515.925781 183 C 516.300781 184.648438 516.375 186.449219 516.300781 188.175781 C 516.226562 189.898438 515.851562 191.625 515.398438 193.273438 C 514.875 194.925781 514.125 196.574219 513.226562 198 C 512.398438 199.5 511.273438 200.925781 510.074219 202.125 C 508.875 203.398438 507.449219 204.449219 505.949219 205.351562 C 504.523438 206.25 502.875 207 501.226562 207.523438 C 499.574219 208.050781 496.125 208.5 496.125 208.5 " clip-rule="nonzero"/></clipPath><clipPath id="b0f4ad917e"><path d="M 0.699219 0.359375 L 201.480469 0.359375 L 201.480469 69.804688 L 0.699219 69.804688 Z M 0.699219 0.359375 " clip-rule="nonzero"/></clipPath><clipPath id="fb87d7d189"><path d="M 181.125 43.5 C 145.875 46.050781 124.875 48.148438 105.148438 51.675781 C 81.375 55.875 39.75 68.023438 27.523438 69.449219 C 23.773438 69.824219 22.574219 69.824219 20.175781 69.449219 C 17.773438 69.074219 15.300781 68.25 13.125 67.125 C 11.023438 66 8.925781 64.425781 7.273438 62.699219 C 5.550781 60.898438 4.125 58.800781 3.074219 56.625 C 2.101562 54.375 1.351562 51.898438 1.125 49.5 C 0.824219 47.101562 0.976562 44.476562 1.5 42.148438 C 2.023438 39.75 2.925781 37.351562 4.199219 35.25 C 5.398438 33.148438 7.125 31.199219 8.925781 29.625 C 10.800781 28.050781 12.976562 26.699219 15.226562 25.800781 C 17.476562 24.898438 20.023438 24.300781 22.425781 24.226562 C 24.898438 24.074219 27.449219 24.300781 29.773438 24.976562 C 32.101562 25.574219 34.5 26.699219 36.449219 28.050781 C 38.476562 29.398438 40.351562 31.125 41.851562 33.074219 C 43.351562 35.023438 44.550781 37.273438 45.300781 39.601562 C 46.125 41.925781 46.574219 44.476562 46.574219 46.875 C 46.574219 49.273438 46.125 51.824219 45.375 54.148438 C 44.625 56.476562 43.425781 58.726562 41.925781 60.675781 C 40.5 62.625 38.625 64.425781 36.601562 65.773438 C 34.574219 67.125 32.25 68.25 29.925781 68.851562 C 27.601562 69.523438 25.050781 69.824219 22.574219 69.675781 C 20.175781 69.601562 17.625 69.074219 15.375 68.175781 C 13.125 67.273438 10.875 65.925781 9.074219 64.351562 C 7.199219 62.773438 5.550781 60.824219 4.273438 58.726562 C 3 56.699219 2.023438 54.300781 1.5 51.898438 C 0.976562 49.574219 0.824219 46.949219 1.050781 44.550781 C 1.351562 42.148438 2.023438 39.675781 3 37.425781 C 4.050781 35.25 5.476562 33.074219 7.125 31.351562 C 8.851562 29.550781 10.875 27.976562 12.976562 26.851562 C 15.148438 25.726562 16.351562 25.425781 19.949219 24.449219 C 32.023438 21.226562 79.5 11.550781 98.925781 8.324219 C 110.175781 6.449219 115.273438 6.074219 125.625 4.949219 C 140.25 3.449219 169.949219 0.523438 178.351562 0.375 C 180.976562 0.375 181.875 0.375 183.523438 0.675781 C 185.25 0.976562 186.976562 1.5 188.550781 2.25 C 190.125 2.925781 191.625 3.824219 192.976562 4.875 C 194.324219 5.925781 195.601562 7.199219 196.648438 8.550781 C 197.773438 9.898438 198.675781 11.398438 199.351562 12.976562 C 200.101562 14.550781 200.625 16.273438 200.925781 18 C 201.300781 19.648438 201.375 21.449219 201.300781 23.175781 C 201.226562 24.898438 200.851562 26.625 200.398438 28.273438 C 199.875 29.925781 199.125 31.574219 198.226562 33 C 197.398438 34.5 196.273438 35.925781 195.074219 37.125 C 193.875 38.398438 192.449219 39.449219 190.949219 40.351562 C 189.523438 41.25 187.875 42 186.226562 42.523438 C 184.574219 43.050781 181.125 43.5 181.125 43.5 " clip-rule="nonzero"/></clipPath><clipPath id="7c2cd421d0"><rect x="0" width="202" y="0" height="70"/></clipPath><clipPath id="f4b291f186"><path d="M 474.191406 176.066406 L 566.359375 176.066406 L 566.359375 412 L 474.191406 412 Z M 474.191406 176.066406 " clip-rule="nonzero"/></clipPath><clipPath id="9934a00695"><path d="M 514.800781 187.5 C 529.273438 216.148438 535.800781 233.773438 540 246.824219 C 543.601562 258.074219 545.625 266.550781 548.476562 278.699219 C 552.226562 294.601562 557.101562 319.199219 559.800781 334.351562 C 561.675781 344.699219 562.800781 352.273438 563.773438 360.675781 C 564.75 368.398438 565.5 378 565.800781 383.023438 C 565.949219 385.648438 566.101562 386.925781 566.023438 388.949219 C 565.875 391.273438 565.648438 393.898438 564.976562 396.148438 C 564.226562 398.476562 563.101562 400.726562 561.675781 402.675781 C 560.25 404.550781 558.449219 406.351562 556.5 407.699219 C 554.476562 409.125 552.226562 410.175781 549.898438 410.851562 C 547.648438 411.601562 545.101562 411.898438 542.699219 411.824219 C 540.300781 411.675781 537.824219 411.226562 535.574219 410.324219 C 533.324219 409.5 531.148438 408.226562 529.273438 406.726562 C 527.476562 405.226562 525.75 403.273438 524.550781 401.25 C 523.273438 399.226562 522.300781 396.898438 521.699219 394.574219 C 521.175781 392.25 520.949219 389.699219 521.175781 387.300781 C 521.398438 384.898438 522.074219 382.425781 523.050781 380.25 C 524.023438 378.074219 525.375 375.976562 527.023438 374.175781 C 528.601562 372.449219 530.625 370.875 532.726562 369.675781 C 534.824219 368.550781 537.226562 367.726562 539.550781 367.273438 C 541.875 366.824219 544.425781 366.824219 546.824219 367.125 C 549.148438 367.5 551.625 368.25 553.726562 369.375 C 555.898438 370.425781 557.925781 371.925781 559.574219 373.648438 C 561.300781 375.375 562.726562 377.476562 563.773438 379.574219 C 564.824219 381.75 565.5 384.226562 565.800781 386.550781 C 566.101562 388.949219 566.023438 391.5 565.574219 393.824219 C 565.050781 396.148438 564.148438 398.550781 562.949219 400.574219 C 561.75 402.675781 560.175781 404.625 558.375 406.199219 C 556.574219 407.773438 554.398438 409.125 552.226562 410.101562 C 549.976562 411 547.5 411.601562 545.175781 411.75 C 542.773438 411.898438 540.226562 411.675781 537.898438 411.074219 C 535.574219 410.476562 533.25 409.425781 531.300781 408.148438 C 529.273438 406.875 527.398438 405.148438 525.898438 403.273438 C 524.398438 401.324219 523.199219 399.148438 522.375 396.898438 C 521.625 394.648438 521.476562 392.773438 521.101562 389.699219 C 520.5 384.449219 520.875 375.300781 520.199219 367.648438 C 519.449219 359.25 518.25 351.601562 516.601562 341.398438 C 514.199219 326.925781 510.074219 304.050781 506.773438 289.050781 C 504.226562 277.648438 502.351562 269.324219 499.199219 259.199219 C 495.824219 248.25 490.875 234.898438 486.675781 225.601562 C 483.523438 218.625 478.949219 211.875 477.074219 207.824219 C 476.101562 205.726562 475.574219 204.675781 475.199219 203.023438 C 474.75 201.375 474.523438 199.574219 474.523438 197.851562 C 474.449219 196.199219 474.675781 194.398438 475.050781 192.75 C 475.5 191.101562 476.101562 189.449219 476.851562 187.875 C 477.601562 186.375 478.648438 184.875 479.773438 183.601562 C 480.824219 182.324219 482.175781 181.125 483.601562 180.148438 C 484.949219 179.175781 486.523438 178.351562 488.101562 177.675781 C 489.675781 177.074219 491.398438 176.625 493.125 176.398438 C 494.851562 176.175781 496.574219 176.175781 498.300781 176.398438 C 499.949219 176.550781 501.675781 176.925781 503.324219 177.523438 C 504.898438 178.125 506.476562 178.949219 507.898438 179.925781 C 509.324219 180.824219 510.675781 182.023438 511.800781 183.300781 C 512.925781 184.574219 514.800781 187.5 514.800781 187.5 " clip-rule="nonzero"/></clipPath><clipPath id="1931ffaaae"><path d="M 0.238281 0.160156 L 92.160156 0.160156 L 92.160156 236 L 0.238281 236 Z M 0.238281 0.160156 " clip-rule="nonzero"/></clipPath><clipPath id="a63b56de70"><path d="M 40.800781 11.5 C 55.273438 40.148438 61.800781 57.773438 66 70.824219 C 69.601562 82.074219 71.625 90.550781 74.476562 102.699219 C 78.226562 118.601562 83.101562 143.199219 85.800781 158.351562 C 87.675781 168.699219 88.800781 176.273438 89.773438 184.675781 C 90.75 192.398438 91.5 202 91.800781 207.023438 C 91.949219 209.648438 92.101562 210.925781 92.023438 212.949219 C 91.875 215.273438 91.648438 217.898438 90.976562 220.148438 C 90.226562 222.476562 89.101562 224.726562 87.675781 226.675781 C 86.25 228.550781 84.449219 230.351562 82.5 231.699219 C 80.476562 233.125 78.226562 234.175781 75.898438 234.851562 C 73.648438 235.601562 71.101562 235.898438 68.699219 235.824219 C 66.300781 235.675781 63.824219 235.226562 61.574219 234.324219 C 59.324219 233.5 57.148438 232.226562 55.273438 230.726562 C 53.476562 229.226562 51.75 227.273438 50.550781 225.25 C 49.273438 223.226562 48.300781 220.898438 47.699219 218.574219 C 47.175781 216.25 46.949219 213.699219 47.175781 211.300781 C 47.398438 208.898438 48.074219 206.425781 49.050781 204.25 C 50.023438 202.074219 51.375 199.976562 53.023438 198.175781 C 54.601562 196.449219 56.625 194.875 58.726562 193.675781 C 60.824219 192.550781 63.226562 191.726562 65.550781 191.273438 C 67.875 190.824219 70.425781 190.824219 72.824219 191.125 C 75.148438 191.5 77.625 192.25 79.726562 193.375 C 81.898438 194.425781 83.925781 195.925781 85.574219 197.648438 C 87.300781 199.375 88.726562 201.476562 89.773438 203.574219 C 90.824219 205.75 91.5 208.226562 91.800781 210.550781 C 92.101562 212.949219 92.023438 215.5 91.574219 217.824219 C 91.050781 220.148438 90.148438 222.550781 88.949219 224.574219 C 87.75 226.675781 86.175781 228.625 84.375 230.199219 C 82.574219 231.773438 80.398438 233.125 78.226562 234.101562 C 75.976562 235 73.5 235.601562 71.175781 235.75 C 68.773438 235.898438 66.226562 235.675781 63.898438 235.074219 C 61.574219 234.476562 59.25 233.425781 57.300781 232.148438 C 55.273438 230.875 53.398438 229.148438 51.898438 227.273438 C 50.398438 225.324219 49.199219 223.148438 48.375 220.898438 C 47.625 218.648438 47.476562 216.773438 47.101562 213.699219 C 46.5 208.449219 46.875 199.300781 46.199219 191.648438 C 45.449219 183.25 44.25 175.601562 42.601562 165.398438 C 40.199219 150.925781 36.074219 128.050781 32.773438 113.050781 C 30.226562 101.648438 28.351562 93.324219 25.199219 83.199219 C 21.824219 72.25 16.875 58.898438 12.675781 49.601562 C 9.523438 42.625 4.949219 35.875 3.074219 31.824219 C 2.101562 29.726562 1.574219 28.675781 1.199219 27.023438 C 0.75 25.375 0.523438 23.574219 0.523438 21.851562 C 0.449219 20.199219 0.675781 18.398438 1.050781 16.75 C 1.5 15.101562 2.101562 13.449219 2.851562 11.875 C 3.601562 10.375 4.648438 8.875 5.773438 7.601562 C 6.824219 6.324219 8.175781 5.125 9.601562 4.148438 C 10.949219 3.175781 12.523438 2.351562 14.101562 1.675781 C 15.675781 1.074219 17.398438 0.625 19.125 0.398438 C 20.851562 0.175781 22.574219 0.175781 24.300781 0.398438 C 25.949219 0.550781 27.675781 0.925781 29.324219 1.523438 C 30.898438 2.125 32.476562 2.949219 33.898438 3.925781 C 35.324219 4.824219 36.675781 6.023438 37.800781 7.300781 C 38.925781 8.574219 40.800781 11.5 40.800781 11.5 " clip-rule="nonzero"/></clipPath><clipPath id="eade8bb748"><rect x="0" width="93" y="0" height="236"/></clipPath></defs><rect x="-76.8" width="921.6" fill="#ffffff" y="-76.799999" height="921.599993" fill-opacity="1"/><rect x="-76.8" width="921.6" fill="#545454" y="-76.799999" height="921.599993" fill-opacity="1"/><g clip-path="url(#97b61d47c6)"><g clip-path="url(#23ff34618e)"><g transform="matrix(1, 0, 0, 1, 163, 170)"><g clip-path="url(#44c2143b3e)"><g clip-path="url(#73e05c0686)"><g clip-path="url(#0300243c17)"><rect x="-331.96" width="1105.92" fill="#0581d3" height="1105.919991" y="-338.959999" fill-opacity="1"/></g></g></g></g></g></g><g clip-path="url(#628db3ed28)"><g clip-path="url(#61e7a9d964)"><g transform="matrix(1, 0, 0, 1, 315, 165)"><g clip-path="url(#7c2cd421d0)"><g clip-path="url(#b0f4ad917e)"><g clip-path="url(#fb87d7d189)"><rect x="-483.96" width="1105.92" fill="#0581d3" height="1105.919991" y="-333.959999" fill-opacity="1"/></g></g></g></g></g></g><g clip-path="url(#f4b291f186)"><g clip-path="url(#9934a00695)"><g transform="matrix(1, 0, 0, 1, 474, 176)"><g clip-path="url(#eade8bb748)"><g clip-path="url(#1931ffaaae)"><g clip-path="url(#a63b56de70)"><rect x="-642.96" width="1105.92" fill="#0581d3" height="1105.919991" y="-344.959999" fill-opacity="1"/></g></g></g></g></g></g></svg>